<?xml version="1.0" standalone="no"?>
<!DOCTYPE svg PUBLIC "-//W3C//DTD SVG 1.1//EN" "http://www.w3.org/Graphics/SVG/1.1/DTD/svg11.dtd" >
<svg xmlns="http://www.w3.org/2000/svg">
<metadata>Generated by IcoMoon</metadata>
<defs>
<font id="icomoon" horiz-adv-x="1024">
<font-face units-per-em="1024" ascent="960" descent="-64" />
<missing-glyph horiz-adv-x="1024" />
<glyph unicode="&#x20;" horiz-adv-x="512" d="" />
<glyph unicode="&#xe900;" glyph-name="Vector" horiz-adv-x="788" d="M385.969 960c-212.283 0-385.969-178.426-385.969-396.501 0-267.638 337.723-569.973 352.197-584.837 19.298-14.872 43.422-14.872 62.72 0 19.298 14.864 357.022 317.199 357.022 584.837 0 218.076-173.686 396.501-385.969 396.501zM385.969 365.248c-106.142 0-192.985 89.212-192.985 198.25s86.843 198.251 192.985 198.251c106.142 0 192.985-89.213 192.985-198.251s-86.843-198.25-192.985-198.25z" />
<glyph unicode="&#xe901;" glyph-name="sector, investment, economic, building, business, property, construction, residential, real-estate" d="M49.625 960h545.871v-992.492h-595.495v496.246h396.997v99.249h-396.997v124.062h396.997v99.249h-396.997v173.686h49.625zM782.084-32.492h-124.558v694.4l334.966-167.485v-526.914h-111.159v297.748h-99.249v-297.748z" />
<glyph unicode="&#xe902;" glyph-name="save-svgrepo-com" d="M288 704l32 32h384l32-32v-568.158l-224 132.74-224-132.74v568.158zM352 672v-423.842l160 94.818 160-94.818v423.842h-320z" />
<glyph unicode="&#xe904;" d="M0 960h1024v-1024h-1024v1024z" />
<glyph unicode="&#xe905;" d="M512-64c-282.24 0-512 229.761-512 512s229.76 512 512 512c282.239 0 512-229.76 512-512s-229.761-512-512-512zM512 928.96c-265.279 0-480.96-215.68-480.96-480.96s215.839-480.961 480.96-480.961c265.279 0 480.961 215.84 480.961 480.961 0 265.279-215.681 480.96-480.961 480.96z" />
<glyph unicode="&#xe906;" d="M718.894 100.966c-1.921 0-3.84 0.158-5.92 0.319-7.446 0.839-14.599 3.367-20.921 7.385-6.322 4.020-11.642 9.431-15.56 15.816-28.321 45.919-47.041 118.879-47.679 122.078-4.962 24.001-17.281 37.281-38.081 41.121-20.641 3.84-36.959 14.56-46.241 30.401-12.8 22.079-35.679 36.159-52.638 44-22.882 10.72-37.439 33.28-38.242 59.038l-0.639 20.96-25.919 21.441c-2.838 2.367-4.762 5.649-5.442 9.279l-6.558 38.4c-3.521 20.799 1.599 42.401 14.238 59.199l44.481 60.002c3.84 5.12 6.561 11.201 7.68 17.601l12.481 68.319c0.8 4.16 3.199 8 6.88 10.24 3.679 2.4 7.999 3.040 12.159 1.92 40.96-10.24 66.721-50.88 80.482-80.32 20.638 49.762 12 105.6 11.839 106.4-1.119 7.2 2.879 14.24 9.76 16.96 11.839 4.64 27.841 2.72 47.679-5.28 5.6-2.24 11.681-2.4 16.959-0.48l48.001 18.56c-27.199 60.8-24.639 113.44-24.481 115.84 0.48 8.48 8.002 15.2 16.321 14.72 8.48-0.48 15.041-7.84 14.721-16.32 0-0.48-2.402-56.32 28.64-115.52 2.080-3.84 2.399-8.48 0.8-12.64-1.602-4.16-4.801-7.36-8.96-8.96l-63.842-24.48c-12.8-4.96-26.88-4.64-39.999 0.64-5.281 2.24-9.601 3.52-13.28 4.32 1.921-29.76 0.48-91.359-34.399-139.041-3.521-4.798-9.44-7.2-15.202-6.078-2.862 0.5-5.527 1.802-7.678 3.757-2.153 1.955-3.708 4.479-4.481 7.283-5.439 18.878-24.639 65.119-54.879 84l-8.96-49.281c-2.082-11.040-6.561-21.599-13.28-30.559l-44.481-59.999c-7.519-10.082-10.559-23.040-8.48-35.521l5.6-32.8 27.038-22.24c3.521-2.879 5.6-7.041 5.6-11.52l0.8-28.16c0.322-13.922 8.16-25.919 20.322-31.681 20.96-9.76 49.279-27.519 66.238-56.481 4.481-7.68 13.6-13.439 25.12-15.518 33.28-6.081 55.52-29.121 62.722-64.641 0 0 18.078-70.719 43.998-112.64 4.001-6.558 10.24-8.16 13.6-8.638 5.922-0.641 11.842 1.438 16.001 5.598 32.48 32.802 52.319 61.601 54.721 79.36 0.158 1.122 0.48 2.402 0.958 3.521l28.482 73.44c2.399 6.239 3.84 12.8 4.159 19.2 1.441 31.039 7.041 108 27.199 152.639 2.687 6.093 6.739 11.483 11.844 15.757 5.105 4.272 11.127 7.312 17.596 8.884 12.8 3.199 26.080 0.319 36.481-7.841 26.4-20.641 42.72-46.399 48.16-74.72l36.479 28.479c3.248 2.521 7.363 3.652 11.444 3.143 4.079-0.512 7.79-2.619 10.316-5.861 2.523-3.248 3.652-7.363 3.143-11.444-0.51-4.079-2.619-7.79-5.861-10.316l-60.16-46.88c-2.409-1.865-5.31-2.979-8.346-3.209-3.038-0.229-6.073 0.441-8.733 1.924-2.658 1.482-4.823 3.716-6.224 6.417-1.402 2.704-1.977 5.759-1.658 8.787 4.001 38.239-18.239 64.319-37.6 79.521-1.378 1.090-2.994 1.846-4.715 2.206s-3.501 0.317-5.203-0.127c-1.899-0.453-3.667-1.339-5.166-2.587s-2.687-2.828-3.474-4.613c-18.4-40.96-23.359-118.562-24.481-141.441-0.48-9.921-2.56-19.68-6.239-28.96l-27.841-71.841c-4.159-24.959-25.439-56.959-63.2-95.039-9.76-9.921-22.56-15.199-35.998-15.199zM260.974 756.646c-4.001 0-7.999 1.6-11.040 4.64-2.616 2.638-4.186 6.133-4.42 9.84-0.236 3.706 0.88 7.373 3.14 10.32 27.199 36.16 70.558 103.52 70.558 130.56 0 4.116 1.636 8.064 4.547 10.974s6.858 4.546 10.974 4.546c4.116 0 8.063-1.635 10.974-4.546s4.547-6.858 4.547-10.974c0-25.6-21.28-65.6-41.601-97.76 45.6 17.44 96.161 26.24 124.64 30.24l-23.679 45.76c-1.399 2.726-1.963 5.804-1.621 8.85s1.573 5.922 3.54 8.271l36.959 44.32c5.442 6.56 15.202 7.52 21.921 2.080 6.561-5.44 7.519-15.2 2.080-21.92l-30.401-36.48 29.282-56.48c1.161-2.255 1.753-4.76 1.724-7.296-0.032-2.536-0.683-5.026-1.899-7.253-1.214-2.226-2.957-4.121-5.076-5.517-2.116-1.397-4.545-2.253-7.068-2.494-1.28-0.16-127.842-12.32-188.801-56.64-2.692-1.975-5.942-3.040-9.279-3.040zM16.013 409.285c-3.925-0.005-7.705 1.477-10.581 4.15s-4.632 6.334-4.916 10.247c-0.284 3.916 0.926 7.792 3.385 10.85 2.46 3.060 5.987 5.071 9.871 5.634 20.8 3.040 34.24 32.958 38.4 46.399-0.96 13.28 4.96 32.639 33.44 54.721 8.16 6.239 13.6 15.199 15.52 25.278l15.68 84.322-3.36 112.48c-0.32 8.64 6.4 15.68 15.040 16 8.32 0.48 15.68-6.4 16-15.040l3.52-114.239c0-1.122 0-2.241-0.32-3.36l-16-86.082c-3.2-17.44-12.8-33.119-27.040-44-17.28-13.278-22.4-23.84-21.44-28.799 0.32-2.241 0.32-4.481-0.32-6.719-0.64-2.721-17.44-64.961-64.64-71.841-0.64 0.161-1.44 0-2.24 0zM367.375-42.555c-2.367 0-4.701 0.539-6.824 1.58-2.126 1.039-3.984 2.55-5.435 4.418-1.453 1.87-2.458 4.045-2.94 6.359-0.48 2.316-0.427 4.713 0.158 7.005 21.28 82.559-54.401 129.599-88.001 146.078-10.401 5.12-19.361 12.961-26.88 23.681-20.64 29.121-46.72 48.479-77.92 57.758-34.4 10.24-58.88 40.802-60.8 76.322l-0.64 10.398c-3.040 23.52-10.080 38.88-19.52 42.401-11.68 4.32-31.2-8.16-38.72-14.88-6.4-5.761-16.16-5.12-21.92 1.119-1.372 1.509-2.431 3.277-3.118 5.198s-0.986 3.957-0.882 5.995c0.104 2.038 0.61 4.033 1.489 5.873 0.879 1.843 2.113 3.491 3.631 4.854 3.68 3.36 37.76 32.958 70.24 20.96 21.44-7.841 34.72-31.042 39.68-68.642l0.64-11.52c1.28-22.399 16.8-41.76 38.56-48.318 26.080-7.68 63.68-26.080 94.4-69.6 4.481-6.4 9.601-10.881 15.202-13.6 31.52-15.36 132.159-74.082 104.48-181.602-1.602-7.2-8.002-11.839-14.88-11.839z" />
<glyph unicode="&#xe907;" d="M0 960h1024v-1024h-1024v1024z" />
<glyph unicode="&#xe908;" d="M1024 743.041c0.154 1.383 0.154 2.778 0 4.16 0.115 0.849 0.115 1.711 0 2.56-0.663 0.825-1.414 1.576-2.241 2.24-1.061 0.826-2.25 1.474-3.521 1.92l-500.799 186.56c-3.516 1.271-7.363 1.271-10.879 0l-496.321-183.040c-1.269-0.446-2.458-1.094-3.52-1.92l-3.52-3.2c-0.114-0.849-0.114-1.711 0-2.56-0.153-1.382-0.153-2.777 0-4.16h-3.2v-590.080c0.037-3.113 1-6.146 2.766-8.711s4.257-4.545 7.154-5.688l496.641-185.6c3.291-1.285 6.946-1.285 10.24 0l496.64 185.6c2.896 1.143 5.386 3.123 7.153 5.688 1.765 2.565 2.728 5.598 2.765 8.711v587.2l0.641 0.32zM496.64-7.678l-464.64 174.080v553.919l55.68-20.8 64-23.679v-213.441c-0.035-2.604 0.592-5.176 1.824-7.47s3.026-4.24 5.216-5.649c2.274-1.18 4.798-1.794 7.36-1.794s5.086 0.614 7.36 1.794l72.001 30.398 74.559-92.16c1.482-1.685 3.301-3.043 5.342-3.979 2.038-0.936 4.254-1.436 6.498-1.46 1.802-0.305 3.64-0.305 5.439 0 2.982 1.053 5.566 3.004 7.4 5.581 1.831 2.577 2.826 5.656 2.84 8.819v204.8l149.121-57.278v-551.68zM317.121 613.122v-173.441l-57.6 67.521c-1.514 1.602-3.355 2.86-5.398 3.689s-4.24 1.207-6.444 1.112c-2.014 0.297-4.063 0.297-6.079 0l-61.12-25.6v177.92l136.641-51.2zM210.88 686.082l116.8 40.319 112.321-45.119-107.52-41.279-121.601 46.080zM512 572.801l-135.68 51.2 111.679 42.24c2.933 1.129 5.469 3.096 7.287 5.659 1.821 2.56 2.848 5.6 2.953 8.741 0.007 3.126-0.939 6.178-2.711 8.75s-4.286 4.545-7.209 5.652l-154.558 62.079c-3.489 1.423-7.392 1.423-10.881 0l-157.44-53.119-105.28 38.719 451.84 166.72 452.159-166.72-452.159-169.92zM992 166.402l-464.64-174.080v551.68l465.601 175.039-0.961-552.639z" />
<glyph unicode="&#xe909;" d="M850.547 544c-1.504 3.847-4.464 6.946-8.238 8.624-3.774 1.68-8.060 1.799-11.922 0.336l-151.040-55.359c-3.83-1.443-6.944-4.325-8.68-8.031-1.733-3.708-1.948-7.946-0.6-11.81 1.053-2.982 3.001-5.566 5.578-7.397 2.577-1.833 5.659-2.826 8.821-2.843 1.797-0.332 3.643-0.332 5.439 0l151.359 55.359c2.024 0.744 3.874 1.885 5.444 3.36s2.826 3.252 3.694 5.225c0.866 1.972 1.326 4.101 1.351 6.254 0.024 2.155-0.388 4.291-1.207 6.283zM783.026 321.919l-2.879 1.921c-0.607 0.707-1.375 1.256-2.241 1.599-1.802 0.293-3.638 0.293-5.439 0h-7.68l-3.521-2.241-44.8-47.999c-2.838-2.977-4.42-6.929-4.42-11.040s1.582-8.065 4.42-11.040c2.938-2.56 6.666-4.028 10.559-4.162 2.172-0.010 4.325 0.441 6.31 1.324 1.987 0.883 3.762 2.177 5.21 3.796l17.92 19.2v-81.598c-0.044-2.031 0.324-4.047 1.080-5.929 0.758-1.885 1.887-3.594 3.323-5.030 1.434-1.436 3.145-2.565 5.027-3.321 1.885-0.758 3.901-1.124 5.929-1.080 2.043-0.044 4.076 0.322 5.976 1.075 1.902 0.753 3.633 1.877 5.093 3.308 1.46 1.429 2.621 3.138 3.413 5.022 0.79 1.885 1.2 3.908 1.197 5.954v80.318l17.92-19.2c1.429-1.431 3.123-2.567 4.991-3.343s3.869-1.175 5.89-1.175c2.021 0 4.023 0.4 5.89 1.175s3.562 1.911 4.988 3.343c2.914 2.938 4.547 6.905 4.547 11.040 0 4.137-1.634 8.104-4.547 11.042l-44.159 47.038zM899.187 357.759c-2.987-0.178-5.864-1.175-8.321-2.879l-2.56-1.919-44.8-48.001c-2.911-2.935-4.545-6.905-4.545-11.040s1.634-8.104 4.545-11.040c2.938-2.558 6.668-4.028 10.559-4.159 2.175-0.012 4.325 0.439 6.31 1.321 1.987 0.885 3.762 2.177 5.21 3.799l17.92 19.2v-81.601c-0.041-2.028 0.324-4.047 1.080-5.929 0.758-1.885 1.887-3.594 3.323-5.030 1.434-1.434 3.145-2.565 5.027-3.321 1.885-0.756 3.901-1.124 5.929-1.080 2.046-0.044 4.076 0.322 5.978 1.075 1.899 0.753 3.63 1.877 5.091 3.308s2.621 3.138 3.413 5.022c0.792 1.885 1.2 3.908 1.2 5.954v81.279l17.92-19.2c1.426-1.431 3.121-2.567 4.988-3.343s3.869-1.175 5.89-1.175c2.021 0 4.023 0.4 5.89 1.175s3.562 1.911 4.991 3.343c2.911 2.938 4.545 6.905 4.545 11.040 0 4.137-1.634 8.104-4.545 11.042l-43.52 46.399-2.56 1.919c-2.526 2.163-5.652 3.504-8.96 3.84z" />
<glyph unicode="&#xe90a;" horiz-adv-x="1044" d="M0 960h1044.078v-1024h-1044.078v1024z" />
<glyph unicode="&#xe90b;" horiz-adv-x="1044" d="M450.666 912.004c-7.048-1.216-9.461-3.776-12.268-6.016-2.773-2.208-4.502-4.288-7.112-6.976-5.255-5.44-10.832-12.576-16.314-19.008s-11.029-12.384-15.304-16.992c-1.924-2.080-2.871-3.904-4.078-4.992-1.63 0-4.014 0.576-7.146 0.96-6.264 0.864-15.073 2.56-23.458 4.032-8.353 1.44-15.89 2.208-23.428 3.008-3.785 0.384-7.634 1.088-11.224 0.96-3.588 0-7.112 0.544-13.246-2.976-6.168-3.52-7.343-6.976-9.17-10.016-1.859-2.976-3.588-5.536-5.122-8.96-3.066-6.88-6.232-15.136-9.168-23.040-2.937-7.872-5.742-16.192-8.158-21.984-0.978-2.304-1.305-3.552-2.054-4.992h-0.98c-1.598-0.448-3.458-1.44-6.134-2.016-6.198-1.344-14.063-2.528-22.448-4-8.353-1.472-17.097-3.2-24.47-4.992-3.688-0.896-6.853-1.728-10.18-3.008-4.465-1.52-8.371-4.304-11.224-8-4.536-5.344-4.405-8.544-5.090-12-0.687-3.425-0.783-7.231-1.044-10.976-0.49-7.487-0.98-15.585-0.98-24-0.032-8.449 0.229-16.735 0-23.040-0.163-3.104-0.815-5.377-1.044-6.975-1.305-0.962-2.936-1.6-5.090-3.010-5.351-3.327-13.051-7.742-20.392-11.999-7.374-4.225-14.095-8.8-20.392-12.993-3.165-2.080-6.525-3.68-9.201-6.015-2.675-2.305-5.742-4.479-8.157-10.977-2.382-6.527-1.533-9.535-0.979-12.991 0.522-3.488 1.958-6.401 3.034-10.017 2.121-7.2 5.286-16.095 8.157-24 2.871-7.903 5.22-15.039 7.145-20.992 0.979-2.976 1.697-5.439 2.023-7.007-0.881-1.375-2.349-2.817-4.078-4.991-3.85-4.961-8.809-11.521-14.258-18.016-5.301-6.178-10.404-12.519-15.302-19.008-2.219-3.040-4.405-5.889-6.134-8.961-1.697-3.102-4.046-6.112-4.046-13.023 0-6.913 2.349-8.929 4.046-12.001 1.729-3.072 3.915-5.983 6.134-8.991 4.47-6.080 9.853-12.545 15.302-19.008s10.408-13.025 14.258-18.016c1.729-2.207 3.197-3.616 4.078-4.991 0.131-0.319-0.098-0.831 0-0.992-0.359-1.568-1.207-3.423-2.023-6.015-1.958-5.953-4.242-14.081-7.145-21.984-2.871-7.905-6.036-15.81-8.157-23.008-1.044-3.584-2.512-6.53-3.067-9.985-0.522-3.488-1.37-6.495 1.044-13.025 2.382-6.495 5.449-8.64 8.157-10.975 2.675-2.337 6.003-3.903 9.136-6.015 6.33-4.16 13.051-8.768 20.425-12.993 7.341-4.225 15.009-8.64 20.392-12.001 2.153-1.343 3.785-2.048 5.090-3.008 0.228-1.6 0.881-3.839 1.012-6.975 0.261-6.305 0-14.593 0-23.040 0-8.385 0.522-17.504 1.044-24.959 0.229-3.745 0.325-6.56 0.978-10.017 0.719-3.455 0.588-6.656 5.124-11.999 4.534-5.345 7.895-6.72 11.224-8.001 3.327-1.279 6.525-2.112 10.18-3.008 7.373-1.791 16.117-3.52 24.47-4.991 8.385-1.472 16.282-2.656 22.448-4 2.676-0.576 4.568-1.568 6.102-2.016h1.012c0.749-1.44 1.076-3.584 2.054-5.985 2.415-5.791 5.22-13.119 8.158-20.992 0.522-1.44 1.5-2.56 2.056-4l-67.311-111.008c-6.461-10.881 5.937-26.273 18.37-23.008l73.411 19.008 19.348-72.001c3.361-12.127 24.211-14.878 30.606-4l63.199 115.009 1.012-1.024c4.014-3.745 5.58-7.104 16.314-8.961 7.048-1.247 9.887 0 13.28 0.96 3.359 1.185 6.787 2.337 10.18 4 6.819 3.329 14.029 7.841 21.404 12.001 7.373 4.192 14.812 8.096 20.424 11.009 2 1.066 4.034 2.070 6.102 3.008 1.468-0.641 3.785-1.793 6.134-3.008 5.58-2.881 12.985-6.817 20.392-10.977 7.375-4.192 14.585-8.704 21.404-12.001 3.393-1.662 6.819-2.879 10.18-4 3.393-1.183 6.232-2.239 13.28-1.024 4.16 0.53 8.061 2.281 11.192 5.024l65.255-110.016c6.395-10.878 27.242-8.128 30.604 4l19.348 72.001 73.413-19.008c12.398-3.265 24.829 12.127 18.37 23.008l-65.255 104c1.468 3.713 2.707 7.264 4.078 11.007 2.935 7.905 5.742 15.201 8.156 20.992 0.98 2.401 1.305 4.546 2.056 6.018h0.98c1.598 0.448 3.458 1.407 6.134 1.984 6.198 1.343 14.061 2.528 22.448 4 8.353 1.472 17.097 3.201 24.47 4.991 3.686 0.895 6.853 1.729 10.18 3.008 4.465 1.522 8.371 4.305 11.224 8.001 4.536 5.343 4.405 8.543 5.090 11.999 0.685 3.458 0.783 6.24 1.044 10.017 0.49 7.455 0.98 16.575 0.98 24.959 0.032 8.447-0.229 16.735 0 23.040 0.163 3.136 0.815 5.375 1.044 6.975 1.305 0.96 2.935 1.665 5.090 3.008 5.351 3.361 13.051 7.776 20.392 12.001s14.095 8.8 20.392 12.993c3.164 2.112 6.525 3.678 9.202 6.015 2.674 2.335 5.742 4.479 8.156 10.975 2.381 6.53 0.522 9.537 0 13.025-0.554 3.455-0.978 6.401-2.056 9.985-2.12 7.198-5.285 15.103-8.156 23.008-2.871 7.903-5.22 15.998-7.146 22.016-0.771 2.297-1.446 4.624-2.022 6.975 0.879 1.375 2.349 2.815 4.078 4.991 3.849 4.991 8.808 11.553 14.258 18.016s10.832 12.929 15.302 19.008c2.253 3.040 4.405 5.919 6.134 8.991 1.697 3.072 4.080 5.12 4.080 12.001 0 6.911-2.383 9.921-4.080 12.993-1.729 3.072-3.915 5.983-6.134 8.991-4.469 6.080-9.852 12.543-15.302 19.008-5.449 6.463-10.409 13.055-14.258 18.016-1.729 2.207-3.198 3.648-4.078 4.991 0 0-0.458 1.697 0 0.992 0.357 1.6 1.207 3.423 2.022 6.015 1.958 5.953 4.243 13.089 7.146 20.992 2.871 7.905 6.036 16.8 8.156 24 1.044 3.616 1.502 6.53 2.056 10.017 0.522 3.455 2.381 6.463 0 12.991-2.413 6.497-5.481 8.642-8.156 11.009-2.709 2.303-6.038 3.871-9.202 5.983-6.297 4.16-13.051 8.768-20.392 12.993-7.341 4.257-15.041 8.64-20.392 11.999-2.154 1.345-3.785 2.048-5.090 3.010-0.229 1.598-0.881 3.839-1.012 7.007-0.261 6.273 0 14.559 0 23.008 0 8.415-0.522 16.513-1.044 24-0.229 3.745-0.327 7.551-0.98 10.976-0.717 3.456-0.586 6.656-5.122 12-2.849 3.698-6.756 6.483-11.224 8-3.327 1.28-6.525 2.112-10.18 3.008-7.373 1.792-16.117 3.52-24.47 4.992-8.387 1.472-16.282 2.656-22.448 4-2.676 0.576-4.568 1.536-6.102 2.016h-1.044c-0.685 1.44-1.076 2.688-2.024 4.992-2.413 5.792-5.22 14.080-8.156 22.016-2.937 7.872-6.102 16.128-9.168 22.976-1.534 3.456-3.263 5.984-5.124 8.992-1.827 3.040-3.002 6.496-9.136 10.016-6.166 3.52-9.69 2.88-13.278 3.008-3.59 0-7.439-0.64-11.224-0.992-7.537-0.832-15.075-1.6-23.428-3.008-8.385-1.44-17.195-3.2-23.492-4-2.674-0.352-4.469-0.896-6.102-0.992-1.175 1.056-2.935 2.656-5.090 4.992-4.241 4.608-9.788 10.56-15.302 16.992-5.481 6.432-11.061 13.6-16.314 19.008-2.61 2.72-4.339 4.8-7.112 6.976-2.807 2.24-5.22 4.8-12.236 6.016-7.048 1.216-9.887 0-13.28-0.992-3.361-1.152-6.787-3.36-10.18-5.024-6.851-3.296-14.029-6.784-21.436-10.976-7.375-4.192-14.78-9.088-20.392-12-2.448-1.28-4.602-2.368-6.102-3.008-2.080 0.934-4.124 1.937-6.134 3.008-5.58 2.88-13.019 7.808-20.36 12-7.375 4.16-14.617 7.68-21.436 11.008-3.393 1.664-6.821 3.84-10.18 4.992-3.393 1.152-6.232 2.24-13.248 0.992zM456.768 879.012c1.044-0.448 1.729-0.352 3.066-0.992 5.351-2.656 12.073-6.88 19.382-11.008 7.242-4.16 14.78-8.576 21.404-12 3.295-1.728 7.080-2.752 10.18-4 3.1-1.28 5.22-3.008 11.224-3.008 6.036 0 8.124 1.728 11.224 3.008 3.1 1.248 6.851 2.24 10.18 4 6.624 3.424 14.159 7.872 21.436 12 7.244 4.128 13.997 8.384 19.348 11.008 1.339 0.64 2.024 0.544 3.068 0.96 0.847-0.736 0.978-0.896 2.056-1.984 4.142-4.256 9.885-10.656 15.27-16.992 5.415-6.336 11.288-12.544 16.314-18.016 2.512-2.688 4.664-5.76 7.144-8s4.568-3.936 10.214-5.984c3.512-1.54 7.349-2.232 11.19-2.016 3.361 0 6.525 0.544 10.214 1.024 7.405 0.96 16.215 2.56 24.47 4 8.254 1.408 16.476 3.36 22.416 4h3.066c0.556-1.056 1.403-1.568 2.056-3.008 2.415-5.44 5.253-13.216 8.158-20.992 2.871-7.808 5.317-16.16 8.156-23.008 1.403-3.424 2.512-6.080 4.078-8.992 1.534-2.912 2.546-6.208 7.114-10.016s8.025-3.968 11.224-4.992c3.196-1.024 6.525-1.216 10.212-2.016 7.309-1.568 15.171-3.519 23.428-4.993 8.254-1.44 16.639-2.56 22.448-4 1.436-0.319 1.958-0.671 3.034-0.992 0.163-1.247 0.914-2.271 1.044-4 0.392-5.919 0-13.695 0-22.016s-0.327-16.609 0-24c0.131-3.68 0.554-7.712 1.012-10.977 0.456-3.295 0.096-5.919 3.066-11.007 2.937-5.088 5.514-5.985 8.158-8.001 2.61-2.016 6.003-4.032 9.168-6.015 6.329-3.935 13.149-8.8 20.392-12.991 7.244-4.16 14.388-7.68 19.382-11.009 1.239-0.799 2.12-1.311 3.034-1.984-0.261-1.185-0.522-2.399-0.98-4-2.181-7.066-4.574-14.067-7.178-20.992-2.837-7.809-5.873-15.968-8.156-23.008-1.11-3.52-1.305-6.785-2.024-10.017-0.717-3.201-2.054-5.249-1.010-10.975 1.010-5.761 2.283-8.192 4.078-11.009 1.761-2.815 3.817-5.056 6.102-7.999 4.568-5.857 10.929-12.609 16.314-19.008 5.383-6.369 9.722-13.183 13.278-17.984 0.98-1.343 1.339-1.984 2.024-3.008-0.653-0.96-1.142-1.793-2.056-3.008-3.524-4.801-7.831-10.623-13.246-16.992-5.385-6.401-11.746-13.119-16.314-19.008-2.285-2.879-4.341-5.184-6.102-7.999-2.189-3.321-3.582-7.086-4.078-11.009-1.044-5.761 0.325-8.768 1.010-11.967 0.719-3.233 0.914-6.497 2.056-10.017 2.251-7.039 5.287-14.207 8.158-22.016 2.837-7.776 5.447-16.288 7.112-21.984 0.424-1.44 0.751-1.887 1.044-3.008l-3.066-1.984c-4.994-3.329-12.137-7.841-19.382-12.001-7.242-4.16-14.063-8.031-20.392-11.999-3.164-1.984-6.525-3.97-9.168-6.018-2.644-2.016-5.22-2.879-8.158-7.999-2.97-5.088-2.61-8.704-3.066-11.999-0.458-3.265-0.881-6.305-1.012-9.985-0.327-7.393 0-15.679 0-24s0.392-16.065 0-22.016c-0.131-1.729-0.881-2.753-1.044-4-1.076-0.321-1.598-0.641-3.034-0.992-5.809-1.41-14.193-2.528-22.448-4.002-8.256-1.472-16.119-3.423-23.428-4.991-3.686-0.799-7.015-0.96-10.212-2.016-4.146-1.159-7.979-3.203-11.224-5.983-4.568-3.841-5.548-6.080-7.114-9.025-1.51-2.917-2.871-5.907-4.078-8.959-2.839-6.881-5.285-15.231-8.156-23.040-2.905-7.776-5.742-15.553-8.158-20.992-0.653-1.44-1.5-1.919-2.056-2.976h-3.066c-5.939 0.641-14.161 2.56-22.416 4-8.254 1.407-17.065 3.008-24.47 4-3.387 0.478-6.795 0.799-10.214 0.96-3.359 0-5.546 0.032-11.19-1.984-3.831-1.191-7.329-3.241-10.214-5.983-2.48-2.241-4.632-5.281-7.144-8.001-5.026-5.471-10.899-11.647-16.314-18.014-5.385-6.337-11.127-12.706-15.27-16.992l-2.056-2.016c-1.044 0.448-1.729 0.383-3.068 1.024-5.351 2.624-12.071 6.847-19.348 10.975-7.276 4.16-14.812 8.578-21.436 12.001-3.295 1.729-7.080 2.753-10.18 4-3.1 1.281-5.22 3.008-11.224 3.008-6.036 0-8.124-1.695-11.224-2.976-3.1-1.279-6.853-2.303-10.18-4-6.624-3.455-14.161-7.873-21.404-12.001-7.276-4.16-14.031-8.415-19.382-11.007-1.761-0.865-2.871-0.544-4.078-1.024-3.172 3.235-6.23 6.576-9.168 10.015-6.297 7.168-12.953 15.713-19.382 23.008-3.229 3.616-6.198 7.104-9.168 9.985-3.034 2.879-5.22 5.503-12.268 7.999-3.512 1.54-7.351 2.233-11.192 2.016-3.359 0-6.525-0.544-10.212-1.024-7.407-0.96-16.215-2.56-24.47-4-8.256-1.407-16.478-3.359-22.416-4h-3.068c-0.554 1.088-1.401 1.6-2.054 3.008-2.415 5.439-5.255 13.216-8.158 21.024-2.871 7.776-5.319 16.127-8.156 22.976-1.197 3.072-2.548 6.084-4.046 9.023-1.566 2.881-2.578 5.184-7.178 8.961-3.231 2.801-7.052 4.865-11.192 6.048-3.198 1.024-6.525 1.217-10.212 2.016-7.309 1.568-15.173 3.52-23.428 4.991-8.254 1.474-16.639 2.592-22.448 4.002-1.436 0.351-1.958 0.671-3.034 0.992-0.163 1.279-0.914 2.271-1.044 4-0.392 5.951 0 13.695 0 22.016s0.325 16.607 0 24c-0.131 3.68-0.554 6.72-1.012 9.983-0.456 3.297-0.098 6.913-3.066 12.001-2.937 5.12-5.516 5.983-8.158 7.999-2.61 2.048-6.003 4.034-9.168 6.018-6.331 3.967-14.161 7.806-21.404 11.999-7.276 4.16-13.377 8.672-18.369 12.001-1.24 0.831-2.121 1.311-3.034 1.984 0.261 1.12 0.587 1.568 0.979 3.008 1.697 5.696 4.307 14.207 7.178 22.016 2.838 7.776 5.873 14.944 8.157 21.984 1.109 3.52 1.305 6.785 2.023 10.017 0.718 3.198 2.055 6.238 1.011 11.999-0.507 3.911-1.9 7.662-4.078 10.977-1.762 2.815-3.818 5.088-6.101 7.999-4.568 5.857-10.963 12.639-16.314 19.008-5.383 6.399-9.723 12.192-13.279 16.992-0.881 1.215-1.403 2.048-2.023 3.008 0.653 1.024 1.044 1.665 2.055 3.008 3.524 4.801 7.863 11.615 13.247 17.984 5.351 6.399 11.746 13.119 16.314 19.008 2.284 2.943 4.34 5.216 6.101 7.999 2.186 3.323 3.58 7.086 4.078 11.009 1.044 5.758-0.326 7.774-1.011 11.007-0.718 3.201-0.914 6.463-2.056 9.985-2.251 7.039-5.286 15.199-8.157 23.008-2.581 6.927-4.953 13.926-7.113 20.992-0.489 1.6-0.75 2.815-1.044 4 0.946 0.673 1.827 1.185 3.067 2.016 4.992 3.295 11.093 6.817 18.369 10.975 7.243 4.16 15.073 9.057 21.404 12.993 3.164 2.016 6.525 4 9.168 6.015s5.22 2.913 8.158 8.001c2.968 5.088 2.61 7.712 3.066 11.007 0.458 3.265 0.881 7.297 1.012 11.009 0.325 7.359 0 15.679 0 24s-0.392 16.063 0 21.984c0.131 1.729 0.881 2.753 1.044 4 1.076 0.319 1.598 0.641 3.034 0.992 5.809 1.407 14.193 2.56 22.448 4 8.254 1.472 16.119 3.425 23.428 5.025 3.686 0.8 7.013 0.992 10.212 1.984 3.196 1.024 6.624 1.184 11.224 4.992 4.568 3.84 5.546 7.072 7.146 10.016 1.532 2.88 2.642 5.568 4.046 8.992 2.837 6.848 5.285 15.2 8.156 23.008 2.903 7.776 5.742 15.552 8.158 20.992 0.653 1.44 1.5 1.92 2.054 3.008h3.068c5.937-0.64 14.159-2.592 22.416-4 8.254-1.408 17.063-3.008 24.47-4 3.721-0.512 6.853-0.896 10.212-1.024 3.361 0 5.548 0.032 11.224 2.016 3.823 1.206 7.309 3.265 10.18 6.016 2.48 2.24 4.634 5.248 7.146 8 5.026 5.44 10.899 11.648 16.314 17.984 5.383 6.336 11.125 12.736 15.302 16.992 1.012 1.088 1.175 1.184 2.024 1.984zM519.999 800.004c-161.995 0-293.647-129.119-293.647-288s131.652-288.001 293.647-288.001c161.963 0 293.647 129.12 293.647 288.001s-131.684 288-293.647 288zM519.999 768.004c144.344 0 261.020-114.433 261.020-256 0-141.569-116.676-256-261.020-256-144.376 0-261.020 114.431-261.020 256 0 141.567 116.644 256 261.020 256zM438.431 640.004c-6.435 0.016-12.812-1.215-18.763-3.62-5.953-2.405-11.362-5.937-15.918-10.397-9.126-9.045-14.246-21.257-14.246-33.983s5.12-24.937 14.246-33.985c9.224-8.959 21.683-13.987 34.665-13.987s25.441 5.028 34.667 13.987c9.126 9.047 14.244 21.259 14.244 33.985s-5.118 24.937-14.244 33.983c-4.558 4.459-9.967 7.991-15.918 10.397s-12.296 3.636-18.733 3.62zM629.073 640.004c-2.317-0.861-4.403-2.229-6.102-4l-228.392-224.001c-3.11-3.050-4.857-7.188-4.857-11.503s1.747-8.453 4.857-11.505c3.112-3.050 7.331-4.765 11.73-4.765s8.62 1.715 11.73 4.765l227.348 224.001c2.815 2.47 4.668 5.823 5.242 9.483 0.576 3.662-0.163 7.405-2.088 10.593-1.924 3.186-4.917 5.62-8.467 6.885-3.552 1.263-7.439 1.279-11.001 0.046zM438.431 608.003c2.048 0.139 4.1-0.147 6.030-0.835 1.928-0.691 3.686-1.767 5.162-3.164 6.525-6.399 6.525-16.575 0-23.008-6.525-6.399-15.89-6.399-22.416 0-6.525 6.401-6.525 16.577 0 23.008 3.263 3.201 7.082 4 11.224 4zM601.568 480.003c-6.435 0.016-12.812-1.213-18.763-3.618-5.953-2.405-11.362-5.939-15.918-10.397-9.126-9.047-14.246-21.259-14.246-33.985s5.12-24.937 14.246-33.983c9.224-8.961 21.683-13.987 34.665-13.987s25.441 5.026 34.667 13.987c9.136 9.047 14.26 21.265 14.26 33.999s-5.124 24.951-14.26 34.001c-4.56 4.451-9.971 7.979-15.922 10.379s-12.294 3.624-18.729 3.604zM601.568 448.004c4.112 0 8.941-1.793 12.236-4.991 6.525-6.401 6.525-16.577 0-23.008-6.558-6.401-16.934-6.401-23.492 0-6.525 6.399-6.525 16.575 0 23.008 3.295 3.198 7.114 4.991 11.256 4.991zM394.579 167.012c0.98-0.386 0.653-0.96 1.012-1.024 1.859-1.793 4.208-4.672 7.146-8.001 2.219-2.528 4.666-6.015 7.146-8.959l-48.941-91.040-13.28 50.015c-2.219 8.096-12.137 13.183-20.392 11.007l-50.965-14.015 35.695 60c1.239-1.377 2.576-2.56 5.090-4.002 6.134-3.52 9.658-2.879 13.246-2.976 3.59 0 7.439-0.448 11.224 0 7.537 0.769 15.075 2.56 23.46 4 8.353 1.442 17.161 3.168 23.426 4.002 2.709 0.319 4.504 0.928 6.134 0.992zM648.455 167.012c1.63 0 4.012-0.576 7.144-1.024 6.264-0.833 15.075-2.56 23.428-4 8.385-1.442 15.922-3.201 23.492-4.002 3.753-0.416 7.602 0 11.192 0 3.588 0 7.112-0.512 13.246 3.008l36.705-55.999-50.963 14.015c-8.254 2.177-18.173-2.879-20.392-11.007l-13.28-51.007-51.975 85.024c0.653 0.735 1.401 1.215 2.022 1.984 5.481 6.431 11.029 13.376 15.302 18.014 1.926 2.080 2.871 3.873 4.080 4.994z" />
<glyph unicode="&#xe90c;" d="M0 960h1024v-1024h-1024v1024z" />
<glyph unicode="&#xe90d;" d="M728.176 187.92c-63.729-57.151-147.92-91.919-240.176-91.919-198.688 0-360 161.31-360 359.998 0 128.257 67.232 240.945 168.319 304.721 55.521 35.008 121.248 55.28 191.681 55.28 28.305 0 47.761-5.488 60.623-15.952 14.21-11.568 19.504-28.88 21.217-48.303 2.032-22.911-1.088-48.672-4.383-73.728-4.144-31.409-8.497-61.809-5.841-85.329 2.257-19.936 9.473-35.551 22.815-45.52 39.314-29.31 93.457-32.911 144.561-33.856 8.833-0.159 16.129 6.881 16.304 15.713 0.161 8.83-6.879 16.127-15.711 16.288-44.399 0.815-91.857 2.048-126.016 27.519-8.991 6.688-10.527 19.056-10.784 33.68-0.544 30.176 7.809 69.010 10.672 105.777 3.297 42.416-1.279 82.032-26.736 107.28-17.215 17.056-44.271 28.432-86.719 28.432-76.704 0-148.289-22.080-208.751-60.224-110.065-69.424-183.249-192.127-183.249-331.777 0-216.351 175.647-391.999 392-391.999 100.464 0 192.145 37.872 261.536 100.095 6.576 5.889 7.12 16.017 1.233 22.592-5.905 6.578-16.017 7.12-22.592 1.233z" />
<glyph unicode="&#xe90e;" d="M376.001 704c-39.745 0-72.001-32.256-72.001-71.999 0-39.745 32.256-72.001 72.001-72.001 39.743 0 71.999 32.256 71.999 72.001 0 39.743-32.256 71.999-71.999 71.999zM376.001 671.999c22.080 0 40-17.918 40-39.998s-17.92-40-40-40c-22.080 0-40 17.92-40 40s17.92 39.998 40 39.998zM280 528.001c-39.743 0-71.999-32.256-71.999-72.001 0-39.743 32.256-71.999 71.999-71.999s71.999 32.256 71.999 71.999c0 39.745-32.256 72.001-71.999 72.001zM280 495.999c22.080 0 40-17.92 40-40s-17.92-40-40-40c-22.080 0-40 17.92-40 40s17.92 40 40 40zM391.999 352.001c-39.743 0-71.999-32.258-71.999-72.001s32.256-71.999 71.999-71.999c39.745 0 72.001 32.256 72.001 71.999s-32.256 72.001-72.001 72.001zM391.999 320c22.080 0 40-17.92 40-40s-17.92-40-40-40c-22.080 0-40 17.92-40 40s17.92 40 40 40zM600 336.001c-39.743 0-71.999-32.256-71.999-72.001 0-39.743 32.256-71.999 71.999-71.999s72.001 32.256 72.001 71.999c0 39.745-32.258 72.001-72.001 72.001zM600 303.999c22.080 0 40-17.92 40-40s-17.92-39.998-40-39.998c-22.080 0-40 17.918-40 39.998s17.92 40 40 40zM831.936 352.272l-13.023 169.295c-0.689 8.816 5.919 16.513 14.719 17.185 8.8 0.687 16.513-5.921 17.183-14.719l13.137-170.801c0.078-1.008 0.062-2-0.048-2.992 0 0-20.145-181.296-28.465-256.209-2.911-26.206-25.072-46.032-51.439-46.032-26.369 0-48.528 19.825-51.441 46.032-8.321 74.913-28.463 256.209-28.463 256.209-0.112 0.992-0.129 1.984-0.048 2.992l13.135 170.801c0.673 8.798 8.385 15.406 17.185 14.719 8.798-0.673 15.408-8.369 14.719-17.185l-13.025-169.295 28.305-254.705c1.12-9.999 9.567-17.567 19.633-17.567 10.063 0 18.512 7.568 19.631 17.567l28.305 254.705z" />
<glyph unicode="&#xe90f;" d="M840.676 366.225c7.857 4.048 17.504 0.944 21.536-6.913 4.048-7.855 0.944-17.504-6.913-21.536-47.52-24.431-95.055-24.271-142.575-0.032-7.873 4.018-11.009 13.665-6.993 21.52 4.018 7.873 13.665 11.009 21.52 6.993 37.81-19.281 75.617-19.456 113.425-0.032zM830.291 815.152c9.248-18.464 29.088-45.376 44.48-79.231 24.721-54.401 38.529-125.601-13.216-208.4-3.455-5.522-9.728-10.784-18.703-14.657-14.081-6.048-36.448-9.391-58.864-9.391-22.418 0-44.785 3.343-58.864 9.391-8.977 3.873-15.25 9.136-18.705 14.657-51.744 82.799-37.936 154-13.216 208.4 15.392 33.855 35.232 60.767 44.48 79.231 11.344 22.72 29.264 32.848 46.305 32.848 17.039 0 34.959-10.128 46.303-32.848zM834.612 544.784c44.032 70.672 32.127 131.455 11.023 177.905-15.183 33.406-34.848 59.919-43.952 78.159-4.672 9.312-10.704 15.152-17.695 15.152-6.993 0-13.025-5.84-17.697-15.152-9.104-18.24-28.768-44.752-43.952-78.159-21.104-46.449-33.009-107.233 11.023-177.905 0.305-0.225 1.568-1.136 2.434-1.584 1.823-0.96 3.967-1.775 6.335-2.528 11.154-3.568 26.514-5.2 41.858-5.2s30.704 1.632 41.855 5.2c2.367 0.753 4.512 1.568 6.335 2.528 0.865 0.448 2.128 1.359 2.434 1.584z" />
<glyph unicode="&#xe910;" glyph-name="customer-service" d="M920.447 477.535c-5.379 10.34-13.479 19.016-23.428 25.090-9.947 6.074-21.365 9.314-33.021 9.375h-63.998c-16.974 0-33.254-6.742-45.257-18.745-12.001-12.003-18.745-28.28-18.745-45.255v-288.001c0-16.972 6.744-33.252 18.745-45.255 12.003-12.001 28.282-18.743 45.257-18.743v-32.001c0-8.487-3.373-16.627-9.373-22.628-6.001-5.999-14.141-9.373-22.628-9.373h-160.001v32.001c0 16.974-6.742 33.252-18.743 45.255-12.003 12.003-28.282 18.745-45.255 18.745h-64.002c-16.972 0-33.252-6.742-45.255-18.745-12.001-12.003-18.743-28.28-18.743-45.255v-32.001c0-16.972 6.742-33.252 18.743-45.255 12.003-12.001 28.282-18.743 45.255-18.743h288.001c25.461 0 49.879 10.114 67.883 28.116 18.002 18.004 28.116 42.422 28.116 67.883v32.001c11.656 0.058 23.074 3.301 33.021 9.375 9.949 6.074 18.049 14.748 23.428 25.088 29.14 5.67 55.404 21.293 74.294 44.195 18.89 22.899 29.234 51.656 29.258 81.342v96.001c-0.024 29.686-10.369 58.44-29.258 81.342-18.89 22.899-45.154 38.522-74.294 44.193zM479.999 31.999v32.001h64.002v-32.001h-64.002zM960 256c0-16.974-6.742-33.252-18.745-45.255s-28.28-18.745-45.255-18.745c-8.487 0-16.627-3.371-22.628-9.373-5.999-6.001-9.373-14.141-9.373-22.628h-63.998v288.001h63.998v-192c0-8.487 3.373-16.627 9.373-22.628 6.001-5.999 14.141-9.371 22.628-9.371s16.627 3.371 22.628 9.371c5.999 6.001 9.373 14.141 9.373 22.628v151.104c9.696-5.572 17.757-13.597 23.373-23.269 5.618-9.672 8.592-20.651 8.626-31.834v-96.001zM103.552 130.464c5.379-10.34 13.479-19.014 23.427-25.088s21.365-9.316 33.021-9.375h63.999c16.974 0 33.254 6.742 45.257 18.743 12.001 12.003 18.745 28.282 18.745 45.255v288.001c0 16.974-6.744 33.252-18.745 45.255-12.003 12.003-28.282 18.745-45.257 18.745h-63.999c-11.655-0.060-23.073-3.301-33.021-9.375s-18.048-14.75-23.427-25.090c-29.14-5.67-55.403-21.293-74.294-44.193s-29.233-51.656-29.258-81.342v-96.001c0.025-29.686 10.368-58.442 29.258-81.342s45.154-38.524 74.294-44.195zM64 352.001c0.034 11.184 3.008 22.163 8.625 31.834s13.678 17.697 23.375 23.269v-151.104c0-8.487 3.371-16.627 9.373-22.628 6.001-5.999 14.14-9.371 22.627-9.371s16.626 3.371 22.627 9.371c6.001 6.001 9.373 14.141 9.373 22.628v192h63.999v-288.001h-63.999c0 8.487-3.371 16.627-9.373 22.628s-14.14 9.373-22.627 9.373c-16.974 0-33.252 6.742-45.255 18.745s-18.745 28.28-18.745 45.255v96.001zM192 545.985c4.117-0.327 8.257 0.211 12.155 1.578 3.897 1.365 7.465 3.532 10.479 6.357 3.012 2.825 5.401 6.248 7.013 10.051s2.413 7.899 2.351 12.029c0 76.382 30.345 149.637 84.354 203.647 54.011 54.011 127.265 84.353 203.647 84.353s149.637-30.343 203.647-84.353c54.009-54.010 84.354-127.264 84.354-203.647 0-8.487 3.371-16.627 9.371-22.628 6.001-5.999 14.141-9.373 22.628-9.373s16.627 3.373 22.628 9.373c5.999 6.001 9.371 14.141 9.371 22.628 0 93.357-37.085 182.888-103.097 248.902-66.014 66.013-155.546 103.098-248.902 103.098s-182.888-37.086-248.902-103.098c-66.012-66.013-103.098-155.545-103.098-248.902 0.010-4.108 0.859-8.172 2.497-11.941s4.028-7.164 7.025-9.975c2.997-2.811 6.537-4.979 10.402-6.373 3.866-1.391 7.975-1.98 12.076-1.727z" />
<glyph unicode="&#xe911;" d="M0 960h1024v-1024h-1024v1024z" />
<glyph unicode="&#xe912;" d="M512 725.588c-38.651 0-75.806-8.335-110.823-23.707l-0.177-0.078 0.038-0.195c2.558-14.493 4.040-29.624 4.040-45.176 0-75.033-31.541-142.151-81.589-175.373l-0.137 0.195 0.020-0.412 10.451-244.901h0.255l-0.373-0.020 0.217-0.177c29.459-24.761 63.621-43.536 99.489-53.999v-0.020c11.182-3.375 17.725-14.97 14.354-26.138-3.281-11.095-15.38-17.488-26.158-14.332-29.837 8.738-58.607 22.6-85.038 40.079l-0.412 0.273 0.020-0.49 2.136-50.568v-0.628h-0.275l0.394-0.215c52.732-29.248 112.514-44.628 173.568-44.628 68.528 0 134.497 19.217 192.137 55.511l0.118-0.177v52.312l-0.412-0.313c-30.479-23.018-64.793-40.498-101.45-51.156h-0.020c-6.53-2.177-13.276-0.472-18.392 3.47-5.118 3.941-8.588 10.101-8.59 16.765 0.002 10.12 6.967 18.558 16.452 20.667h0.018c42.068 12.386 80.502 35.45 112.315 66.195l0.078-0.078v93.315h-106.922c-11.595 0-21.078 9.483-21.078 21.078v256c0 33.244 7.033 64.781 19.609 93.549l0.096 0.255-0.255 0.098c-26.903 8.541-54.878 13.019-83.705 13.019zM746.412 106.667c0-11.872 9.716-21.588 21.588-21.588s21.588 9.716 21.588 21.588v234.922h-43.177v-234.922zM256 810.922c-29.545 0-56.289-17.348-75.627-45.314-19.337-27.966-31.293-66.575-31.294-109.176 0-64.269 28.399-122.619 70.961-145.079 6.277-3.323 10.457-9.553 11.117-16.569l0.058-3.040-15.352-362.882c-0.43-11.798 3.646-23.177 11.804-31.549 15.031-15.88 41.635-15.88 56.665 0 8.158 8.373 12.234 19.751 11.804 31.549l-15.352 362.882c-0.422 8.222 4.008 15.812 11.176 19.609 42.564 22.46 70.961 80.81 70.961 145.079 0 42.6-11.959 81.209-31.294 109.176-19.338 27.966-46.082 45.314-75.627 45.314zM831.745 106.667c0-35.061-28.684-63.745-63.745-63.745-30.17 0-55.451 21.245-62.038 49.295l-0.080 0.313-0.293-0.157c-59.057-32.407-125.364-49.451-193.588-49.451-64.386 0-127.287 15.143-183.784 44.136l-0.217 0.098-0.116-0.215c-3.62-6.813-7.656-13.186-12.961-18.707-15.739-16.376-36.591-25.313-58.922-25.313-22.329 0-43.163 8.937-58.902 25.313-15.741 16.593-24.475 39.348-23.412 62.53l3.824 89.391 0.079-0.018-0.098 0.157c-46.051 67.373-70.568 145.838-70.568 227.705 0 40.081 5.958 79.105 17.47 116.628l0.079-0.020-0.079 0.177c-11.082 27.704-17.47 58.828-17.47 91.648 0.001 54.24 16.723 103.414 43.725 139.019 27.004 35.606 64.274 57.627 105.353 57.627 32.348 0 62.153-13.825 86.646-37.039l-0.293-0.314 0.588 0.255c53.085 24.517 109.791 37.098 169.058 37.098 60.121 0 117.467-12.787 170.765-37.941l0.116 0.216-0.195-0.431 0.333 0.235c36.866 23.866 80.553 37.922 127.647 37.922 11.595 0 21.078-9.484 21.078-21.078v-135.686h-0.058l0.116-0.157c55.003-70.782 85.275-158.405 85.275-248.157s-30.27-177.375-85.275-248.157l0.197-0.157-0.255 0.197v-93.216zM832.215 618.137l-0.47-0.116v-340.040l0.47-0.116c27.752 52.087 42.707 110.574 42.707 170.137 0 59.561-14.954 118.049-42.707 170.137zM154.843 511.197c-3.628-20.707-5.765-41.847-5.765-63.197 0-51.234 10.898-100.984 31.392-146.882l0.471 0.098 7.686 179.626-0.255 0.020 0.49-0.020-0.353 0.217c-12.351 8.304-23.416 18.538-33.216 30.254l-0.353 0.412-0.098-0.528zM789.313 809.627c-95.913-10.467-170.902-92.271-170.902-190.961v-234.922h43.177v234.922c0 74.967 55.585 136.935 127.785 147.372l0.215 0.039v43.588l-0.275-0.039zM789.275 723.452c-48.752-10.055-85.53-53.252-85.53-104.785v-234.922h85.843v339.765l-0.313-0.058zM512 810.922c-49.313 0-96.712-9.609-141.117-28.608l-0.255-0.118 0.137-0.255c7.244-11.931 13.651-24.918 18.765-38.764l0.078-0.255 0.255 0.098c38.798 15.986 79.721 24.725 122.137 24.725 36.025 0 70.981-6.178 104.235-17.902l0.177-0.058 0.118 0.157c8.523 12.571 18.328 24.286 29.196 34.941l0.273 0.274-0.353 0.137c-42.267 16.866-86.893 25.628-133.646 25.628z" />
<glyph unicode="&#xe913;" horiz-adv-x="1044" d="M0 960h1044.078v-1024h-1044.078v1024z" />
<glyph unicode="&#xe914;" horiz-adv-x="1044" d="M905.859 729.118c0.209 25.54-9.824 49.562-28.23 67.625-18.418 18.063-43.319 28.037-68.951 27.689-26.040-0.205-50.367-10.414-68.492-28.764l-107.771-109.106-336.527 62.279c-5.106 0.952-10.399-0.647-14.085-4.261l-91.106-89.353c-3.769-3.698-5.377-9.011-4.281-14.121s4.751-9.34 9.71-11.234l276.116-105.482-79.84-80.846-110.317-2.62c-4.052-0.092-7.915-1.721-10.776-4.526l-73.106-71.702c-3.967-3.891-5.523-9.543-4.114-14.858 1.42-5.305 5.596-9.491 10.995-10.977l160.527-44.257 45.134-157.441c1.514-5.283 5.785-9.389 11.204-10.782 1.315-0.337 2.662-0.502 3.988-0.502 4.124 0 8.156 1.588 11.152 4.526l73.106 71.702c2.861 2.805 4.522 6.594 4.616 10.567l2.672 108.195 82.43 78.306 107.55-270.808c1.932-4.873 6.244-8.447 11.453-9.533 1.076-0.225 2.162-0.327 3.249-0.327 4.144 0 8.164 1.598 11.16 4.536l91.108 89.355c3.684 3.614 5.313 8.786 4.353 13.814l-63.5 330.055 111.237 105.697c18.709 17.767 29.128 41.627 29.327 67.174l0.010-0.020zM854.574 684.165l-117.344-111.494c0 0-0.010-0.030-0.030-0.040-1.484-1.424-2.674-3.124-3.488-4.987-0.022-0.040-0.020-0.092-0.042-0.133-1.148-2.693-1.544-5.734-0.95-8.816l63.532-330.21-68.126-66.825-107.383 270.376c0 0 0 0.020-0.010 0.030-1.598 4.036-4.72 7.015-8.469 8.592-0.082 0.030-0.177 0.052-0.261 0.082-1.785 0.717-3.694 1.136-5.658 1.177-0.072 0-0.137-0.010-0.209-0.010-1.911 0-3.843-0.297-5.732-1.002-0.030 0-0.062-0.012-0.092-0.022-2.048-0.777-3.823-1.936-5.295-3.347l-104.085-98.878c-2.976-2.827-4.698-6.686-4.793-10.742l-2.672-108.329-49.594-48.64-40.237 140.36c-1.494 5.192-5.628 9.246-10.923 10.712l-143.111 39.454 49.594 48.64 110.463 2.62c4.134 0.102 8.072 1.793 10.953 4.7l100.846 102.125c0.137 0.133 0.169 0.317 0.303 0.46 1.253 1.351 2.349 2.877 3.070 4.68 0 0 0.010 0.060 0.020 0.092 0.721 1.863 1.044 3.769 1.024 5.642 0 0.050 0.010 0.112 0 0.175-0.030 1.924-0.46 3.809-1.201 5.57-0.032 0.082-0.042 0.165-0.084 0.245-1.606 3.676-4.656 6.738-8.758 8.304 0 0-0.032 0.012-0.042 0.022l-275.679 105.317 68.136 66.827 336.685-62.311c3.142-0.582 6.242-0.195 8.989 0.932 0.042 0.010 0.082 0.022 0.135 0.042 1.911 0.799 3.644 1.966 5.086 3.429 0.010 0 0.032 0.010 0.042 0.020l113.678 115.088c12.196 12.339 28.556 19.22 46.076 19.343 17.822 0.287 34.005-6.482 46.389-18.627 12.382-12.155 19.137-28.303 19-45.497-0.145-17.183-7.152-33.24-19.731-45.189l-0.022 0.040z" />
<glyph unicode="&#xe915;" glyph-name="warning" d="M512 960c-101.264 0-200.254-30.028-284.452-86.288s-149.822-136.223-188.574-229.778c-38.752-93.556-48.891-196.5-29.136-295.818s68.519-190.552 140.123-262.154c71.604-71.607 162.835-120.369 262.153-140.122 99.32-19.758 202.266-9.621 295.821 29.135 93.555 38.751 173.519 104.375 229.776 188.572 56.261 84.197 86.289 183.189 86.289 284.453 0 135.791-53.94 266.020-149.962 362.039-96.017 96.019-226.245 149.961-362.038 149.961zM512 21.333c-84.386 0-166.878 25.025-237.043 71.904-70.165 46.885-124.852 113.523-157.145 191.483-32.294 77.965-40.743 163.752-24.28 246.518s57.099 158.79 116.77 218.46c59.67 59.67 135.695 100.307 218.46 116.77s168.552 8.014 246.518-24.28c77.961-32.294 144.599-86.981 191.483-157.145 46.88-70.165 71.904-152.656 71.904-237.043 0-113.157-44.954-221.681-124.967-301.7-80.018-80.013-188.543-124.967-301.7-124.967zM512 362.667c11.318 0 22.167 4.496 30.169 12.498s12.498 18.851 12.498 30.169v256c0 11.316-4.496 22.168-12.498 30.17s-18.851 12.497-30.169 12.497c-11.318 0-22.167-4.495-30.17-12.497-8.001-8.002-12.497-18.854-12.497-30.17v-256c0-11.318 4.495-22.167 12.497-30.169s18.852-12.498 30.17-12.498zM512 277.333c-11.318 0-22.167-4.496-30.17-12.498-8.001-8.002-12.497-18.851-12.497-30.169s4.495-22.167 12.497-30.169c8.003-8.002 18.852-12.498 30.17-12.498s22.167 4.496 30.169 12.498c8.002 8.002 12.498 18.851 12.498 30.169s-4.496 22.167-12.498 30.169c-8.002 8.002-18.851 12.498-30.169 12.498z" />
<glyph unicode="&#xe916;" glyph-name="arrow-1" horiz-adv-x="563" d="M544.435-49.075c-20.736-19.968-54.273-19.968-74.958 0l-438.426 423.117c-9.814 9.329-17.629 20.552-22.968 32.993s-8.094 25.841-8.094 39.378c0 13.538 2.754 26.936 8.094 39.377s13.154 23.667 22.968 32.993l441.6 426.24c10.022 9.526 23.294 14.88 37.121 14.975 13.829 0.095 27.172-5.076 37.325-14.463 5.028-4.636 9.052-10.254 11.822-16.508s4.224-13.010 4.28-19.85c0.051-6.84-1.3-13.617-3.973-19.913s-6.61-11.976-11.566-16.689l-404.174-389.99c-4.911-4.664-8.822-10.278-11.494-16.501s-4.050-12.925-4.050-19.697c0-6.774 1.378-13.476 4.050-19.697 2.672-6.226 6.583-11.837 11.494-16.502l400.948-386.918c4.91-4.659 8.817-10.271 11.489-16.486 2.673-6.221 4.050-12.918 4.050-19.686s-1.377-13.466-4.050-19.686c-2.673-6.216-6.579-11.827-11.489-16.486z" />
<glyph unicode="&#xe917;" glyph-name="arrow" horiz-adv-x="563" d="M18.766-49.075c20.736-19.968 54.272-19.968 74.957 0l438.425 423.117c9.815 9.329 17.628 20.552 22.968 32.993s8.095 25.841 8.095 39.378c0 13.538-2.755 26.936-8.095 39.377s-13.153 23.667-22.968 32.993l-441.599 426.24c-10.022 9.526-23.294 14.88-37.121 14.975s-27.171-5.076-37.324-14.463c-5.029-4.636-9.053-10.254-11.823-16.508s-4.226-13.010-4.279-19.85c-0.053-6.84 1.299-13.617 3.972-19.913s6.61-11.976 11.567-16.689l404.173-389.99c4.911-4.664 8.822-10.278 11.494-16.501s4.050-12.925 4.050-19.697c0-6.774-1.378-13.476-4.050-19.697-2.672-6.226-6.583-11.837-11.494-16.502l-400.947-386.918c-4.91-4.659-8.819-10.271-11.491-16.486-2.672-6.221-4.050-12.918-4.050-19.686s1.378-13.466 4.050-19.686c2.672-6.216 6.582-11.827 11.491-16.486z" />
<glyph unicode="&#xe918;" horiz-adv-x="1044" d="M153.977 506.751c4.041 0 8.081 1.516 11.151 4.536l59.491 58.348c6.16 6.042 6.16 15.842 0 21.883s-16.151 6.042-22.311 0l-59.492-58.348c-6.16-6.042-6.16-15.842 0-21.883 3.080-3.020 7.121-4.536 11.151-4.536h0.010zM260.484 504.047l35.76 35.073c6.16 6.042 6.16 15.842 0 21.883s-16.151 6.042-22.311 0l-35.76-35.073c-6.16-6.042-6.16-15.842 0-21.883 3.080-3.020 7.12-4.536 11.15-4.536 4.032 0 8.082 1.516 11.152 4.536h0.010zM597.701 71.562c4.040 0 8.080 1.516 11.15 4.536l59.492 58.348c6.16 6.042 6.16 15.842 0 21.883s-16.151 6.042-22.311 0l-59.492-58.348c-6.16-6.042-6.16-15.842 0-21.883 3.080-3.020 7.12-4.536 11.15-4.536h0.012zM601.49 169.609l35.76 35.073c6.16 6.042 6.16 15.842 0 21.883s-16.151 6.042-22.311 0l-35.76-35.073c-6.16-6.042-6.16-15.842 0-21.883 3.080-3.020 7.12-4.536 11.15-4.536 4.032 0 8.082 1.516 11.152 4.536h0.010z" />
<glyph unicode="&#xe919;" d="M0 960h1024v-1024h-1024v1024z" />
<glyph unicode="&#xe91a;" d="M384 376.001c0 23.733-7.037 46.933-20.223 66.666-13.186 19.735-31.927 35.115-53.852 44.197-21.928 9.083-46.056 11.461-69.333 6.831s-44.659-16.057-61.442-32.838c-16.783-16.782-28.212-38.163-32.843-61.44s-2.256-47.405 6.825-69.333c9.081-21.928 24.461-40.669 44.194-53.856 19.732-13.186 42.933-20.225 66.665-20.227 15.762-0.004 31.367 3.098 45.927 9.128s27.793 14.868 38.936 26.012c11.144 11.144 19.984 24.373 26.014 38.934 6.032 14.561 9.134 30.166 9.132 45.927zM263.991 287.999c-17.404 0.002-34.416 5.164-48.887 14.836-14.471 9.67-25.749 23.413-32.408 39.494s-8.401 33.774-5.004 50.843c3.396 17.071 11.778 32.75 24.086 45.056 12.306 12.306 27.987 20.687 45.056 24.082 17.071 3.395 34.764 1.65 50.845-5.010 16.079-6.66 29.822-17.94 39.49-32.411 9.67-14.473 14.832-31.485 14.832-48.889-0.026-23.333-9.306-45.703-25.807-62.201-16.498-16.498-38.87-25.777-62.203-25.801zM879.999 376.001c0 23.733-7.037 46.933-20.223 66.666-13.186 19.735-31.927 35.115-53.852 44.197-21.928 9.083-46.054 11.461-69.333 6.831-23.277-4.63-44.658-16.057-61.442-32.838-16.782-16.782-28.212-38.163-32.842-61.44-4.632-23.277-2.257-47.405 6.825-69.333s24.462-40.669 44.195-53.856c19.733-13.186 42.932-20.225 66.666-20.227 15.76-0.004 31.365 3.098 45.925 9.128s27.793 14.868 38.936 26.012c11.146 11.144 19.984 24.373 26.016 38.934 6.030 14.561 9.132 30.166 9.13 45.927zM759.993 287.999c-17.406 0.002-34.418 5.164-48.889 14.836-14.471 9.67-25.749 23.413-32.407 39.494-6.66 16.081-8.401 33.774-5.006 50.843 3.397 17.071 11.778 32.75 24.086 45.056s27.987 20.687 45.058 24.082c17.069 3.395 34.764 1.65 50.843-5.010s29.822-17.94 39.492-32.411c9.668-14.473 14.83-31.485 14.83-48.889-0.026-23.333-9.306-45.703-25.807-62.201-16.498-16.498-38.87-25.777-62.201-25.801zM722.177 228.96l-17.984-114.184c-0.394-2.484-0.195-5.026 0.58-7.417 0.773-2.393 2.102-4.568 3.875-6.351l40-40.281c2.962-2.986 6.981-4.684 11.186-4.728 4.206-0.046 8.26 1.568 11.286 4.49l40 38.663c1.829 1.769 3.211 3.945 4.032 6.355 0.819 2.407 1.052 4.977 0.681 7.493l-17.201 116.16c-10.344-2.713-20.948-4.323-31.632-4.799l15.968-107.92-22.737-21.962-23.169 23.329 16.77 106.504c-10.688 0.424-21.299 1.986-31.656 4.648z" />
<glyph unicode="&#xe91b;" d="M881.22 284.672c-8.148-10.796-17.689-20.464-28.377-28.752 28.726-0.632 56.053-12.523 76.097-33.109 20.042-20.588 31.198-48.222 31.063-76.955v-142.448c0.026-0.875-0.297-1.727-0.895-2.365-0.6-0.638-1.43-1.014-2.305-1.042h-393.599c-0.875 0.028-1.705 0.404-2.303 1.042-0.6 0.638-0.924 1.49-0.898 2.365v142.448c-0.135 28.732 11.021 56.366 31.065 76.955 20.042 20.586 47.369 32.477 76.095 33.109-10.688 8.288-20.229 17.956-28.377 28.752-31.493-7.104-59.627-24.723-79.766-49.957-20.137-25.233-31.077-56.575-31.017-88.859v-142.448c-0.018-9.361 3.678-18.344 10.278-24.982 6.598-6.638 15.561-10.389 24.921-10.427h393.599c9.361 0.038 18.324 3.789 24.921 10.427 6.6 6.638 10.296 15.621 10.278 24.982v142.448c0.060 32.284-10.881 63.627-31.017 88.859-20.139 25.235-48.273 42.853-79.766 49.957zM226.18 228.96l-17.984-114.184c-0.392-2.484-0.193-5.026 0.582-7.417 0.773-2.393 2.1-4.57 3.875-6.353l40-40.279c2.962-2.986 6.979-4.684 11.186-4.728 4.206-0.046 8.26 1.568 11.286 4.49l40 38.663c1.829 1.767 3.211 3.945 4.030 6.355 0.819 2.407 1.054 4.977 0.681 7.493l-17.199 116.16c-10.344-2.715-20.948-4.323-31.632-4.799l15.966-107.922-22.735-21.96-23.169 23.329 16.767 106.504c-10.686 0.422-21.297 1.986-31.656 4.648z" />
<glyph unicode="&#xe91c;" d="M385.217 284.672c-8.148-10.796-17.689-20.464-28.377-28.752 28.726-0.634 56.053-12.525 76.097-33.111 20.042-20.586 31.198-48.22 31.063-76.953v-142.448c0.026-0.875-0.297-1.727-0.895-2.365-0.6-0.638-1.43-1.014-2.305-1.042h-393.6c-0.876 0.028-1.704 0.404-2.304 1.042s-0.922 1.49-0.896 2.365v142.448c-0.135 28.732 11.021 56.366 31.064 76.953s47.371 32.477 76.096 33.111c-10.688 8.288-20.229 17.956-28.376 28.752-31.493-7.104-59.627-24.725-79.765-49.957-20.138-25.235-31.079-56.575-31.019-88.859v-142.448c-0.017-9.361 3.68-18.344 10.279-24.984 6.599-6.638 15.562-10.387 24.922-10.425h393.6c9.361 0.038 18.324 3.787 24.921 10.425 6.6 6.64 10.296 15.623 10.278 24.984v142.448c0.060 32.284-10.881 63.625-31.017 88.859-20.139 25.233-48.273 42.853-79.766 49.957zM699.344 515.295c10.039 4.395 20.528 7.682 31.28 9.8-21.191 39.559-52.718 72.626-91.22 95.678-38.502 23.054-82.538 35.23-127.416 35.23-44.875 0-88.911-12.176-127.416-35.23-38.502-23.052-70.028-56.119-91.22-95.678 10.758-2.12 21.253-5.409 31.296-9.808 18.876 33.025 46.146 60.472 79.047 79.563s70.262 29.146 108.301 29.146c38.039 0 75.401-10.055 108.301-29.146s60.171-46.53 79.047-79.555z" />
<glyph unicode="&#xe91d;" d="M958.984 514.664h-57.521c-9.503 37.597-24.429 73.61-44.311 106.904l40.719 40.743c25.305 25.353 23.377 68.522-4.303 96.216l-38.952 38.993c-27.76 27.728-70.953 29.672-96.272 4.32l-40.753-40.712c-33.278 19.896-69.285 34.827-106.879 44.32v57.552c0 35.84-31.927 65-71.192 65h-55.031c-39.249 0-71.184-29.16-71.184-65v-57.552c-37.595-9.49-73.599-24.418-106.879-44.312l-40.697 40.72c-25.321 25.28-68.544 23.36-96.336-4.352l-38.896-38.953c-27.744-27.664-29.728-70.831-4.4-96.256l40.768-40.735c-19.898-33.284-34.826-69.297-44.312-106.896h-57.576c-35.824 0-64.976-31.913-64.976-71.128v-55.049c0-39.239 29.152-71.16 64.976-71.16h57.584c0.384-1.512 0.824-3 1.224-4.504l2.072 0.592c-5.277 11.447-9.093 23.512-11.36 35.912h-49.52c-18.176 0-32.976 17.559-32.976 39.159v55.041c0 21.584 14.8 39.135 32.976 39.135h70.264c3.652 0.002 7.195 1.251 10.038 3.544 2.844 2.291 4.818 5.487 5.594 9.057 9.306 42.655 26.157 83.303 49.76 120.031 1.967 3.074 2.825 6.726 2.429 10.354-0.394 3.628-2.016 7.011-4.597 9.589l-49.704 49.664c-12.864 12.912-10.92 35.776 4.368 51.017l38.888 38.943c15.296 15.256 38.223 17.2 51.096 4.352l49.648-49.664c2.58-2.578 5.963-4.198 9.587-4.59 3.626-0.394 7.276 0.464 10.348 2.429 36.729 23.594 77.374 40.439 120.025 49.745 3.568 0.778 6.762 2.752 9.051 5.596 2.291 2.844 3.54 6.385 3.54 10.036v70.232c0 18.192 17.577 33 39.193 33h55.023c21.6 0 39.185-14.8 39.185-33v-70.232c0-3.651 1.249-7.193 3.54-10.036 2.289-2.844 5.483-4.818 9.051-5.596 42.649-9.309 83.293-26.155 120.025-49.745 3.072-1.966 6.722-2.823 10.348-2.429 3.624 0.392 7.007 2.012 9.587 4.59l49.712 49.672c12.856 12.88 35.752 10.92 51.015-4.336l38.936-38.975c15.231-15.242 17.151-38.113 4.297-50.993l-49.656-49.688c-2.578-2.58-4.196-5.961-4.59-9.587-0.392-3.624 0.464-7.276 2.429-10.348 23.582-36.744 40.432-77.394 49.76-120.047 0.779-3.566 2.753-6.758 5.598-9.047 2.843-2.289 6.383-3.538 10.033-3.538h70.184c18.199 0 33.015-17.551 33.015-39.127v-55.049c0-21.6-14.816-39.159-33.015-39.159h-49.479c-2.209-12.435-5.971-24.54-11.202-36.033 0.641-0.177 1.297-0.287 1.93-0.48 0.4 1.512 0.847 3 1.231 4.512h57.521c35.848 0 65.016 31.921 65.016 71.16v55.041c0 39.223-29.168 71.136-65.016 71.136z" />
<glyph unicode="&#xe91e;" glyph-name="save" horiz-adv-x="709" d="M151.923 950.154h405.078c37.644 0 73.771-15.13 100.423-42.077 26.652-26.95 41.653-63.533 41.653-101.692v-819.232c0.028-7.306-1.867-14.486-5.463-20.807-3.584-6.302-8.728-11.524-14.923-15.155-4.659-2.666-9.767-4.376-15.037-5.037l-5.309-0.307h-0.114c-5.344-0.035-10.65 0.981-15.577 3.001l-4.809 2.343-283.384 165.695-4.962-2.922-278.5-162.808c-6.191-3.616-13.212-5.498-20.346-5.502-7.139 0-14.189 1.883-20.384 5.502-6.214 3.627-11.369 8.873-14.962 15.191-3.593 6.321-5.489 13.501-5.462 20.807v819.232c0 38.159 15.001 74.742 41.654 101.692 24.988 25.265 58.298 40.127 93.384 41.885l7.038 0.192zM151.923 867.462c-16.072 0-31.474-6.469-42.808-17.923-11.331-11.457-17.692-26.998-17.692-43.154v-747.769l242.692 141.769c6.195 3.616 13.208 5.537 20.346 5.537s14.151-1.922 20.346-5.537l242.692-141.769v747.769c0 16.156-6.361 31.697-17.692 43.154-11.335 11.453-26.738 17.923-42.807 17.923h-405.078z" />
<glyph unicode="&#xe920;" glyph-name="Polygon-1" horiz-adv-x="1536" d="M739 64l739.009 896h-1478.018l739.009-896z" />
<glyph unicode="&#xe921;" glyph-name="search" d="M605.496 188.329c194.703 0 353.106 158.403 353.106 353.105s-158.403 353.104-353.106 353.104c-194.701 0-353.103-158.403-353.103-353.104s158.403-353.105 353.103-353.105zM605.496 823.917c155.756 0 282.481-126.729 282.481-282.483s-126.725-282.485-282.481-282.485c-155.753 0-282.483 126.73-282.483 282.485s126.694 282.483 282.483 282.483zM100.817 1.464c4.637-0.005 9.23 0.906 13.514 2.683 4.284 1.772 8.175 4.378 11.45 7.66l271.678 271.683c3.278 3.277 5.879 7.168 7.653 11.453 1.775 4.28 2.687 8.873 2.687 13.507 0 4.639-0.913 9.231-2.687 13.512-1.774 4.285-4.375 8.177-7.653 11.453-3.278 3.282-7.171 5.878-11.454 7.654s-8.874 2.688-13.511 2.688c-4.636 0-9.227-0.911-13.511-2.688s-8.175-4.372-11.453-7.654l-271.678-271.677c-4.954-4.931-8.331-11.223-9.703-18.079-1.372-6.851-0.676-13.962 1.999-20.419s7.208-11.976 13.025-15.852c5.816-3.881 12.654-5.939 19.644-5.924z" />
<glyph unicode="&#xe922;" glyph-name="search-1" d="M418.504 188.344c-194.701 0-353.104 158.403-353.104 353.102 0 194.701 158.403 353.103 353.104 353.103 194.703 0 353.101-158.402 353.101-353.103 0-194.7-158.397-353.102-353.101-353.102zM418.504 823.929c-155.754 0-282.483-126.729-282.483-282.483 0-155.752 126.729-282.482 282.483-282.482 155.756 0 282.481 126.73 282.481 282.482 0 155.754-126.689 282.483-282.481 282.483zM923.182 1.459c-4.639-0.005-9.231 0.906-13.512 2.678-4.285 1.777-8.177 4.383-11.453 7.665l-271.677 271.677c-3.277 3.282-5.878 7.173-7.654 11.453-1.772 4.285-2.683 8.878-2.683 13.512 0 4.639 0.911 9.226 2.683 13.512 1.777 4.285 4.378 8.177 7.654 11.453 3.282 3.277 7.173 5.878 11.453 7.654 4.285 1.772 8.878 2.688 13.512 2.688 4.639 0 9.226-0.916 13.512-2.688 4.28-1.777 8.177-4.378 11.453-7.654l271.677-271.677c4.956-4.931 8.33-11.223 9.702-18.079s0.676-13.962-1.997-20.419c-2.678-6.461-7.209-11.976-13.025-15.857-5.816-3.876-12.657-5.934-19.645-5.919z" />
<glyph unicode="&#xe924;" glyph-name="Untitled" horiz-adv-x="1463" d="M0 960h1462.857v-1024h-1462.857v1024z" />
<glyph unicode="&#xe925;" glyph-name="arrow-right-svgrepo-com" d="M564.599 257.839c-12.8-12.19-13.295-32.444-1.105-45.239 12.19-12.8 32.444-13.295 45.239-1.105l-44.134 46.345zM832.734 424.828c12.8 12.19 13.295 32.444 1.105 45.239-12.19 12.8-32.444 13.295-45.239 1.105l44.134-46.345zM788.599 424.828c12.796-12.19 33.050-11.695 45.239 1.105 12.19 12.796 11.695 33.050-1.105 45.239l-44.134-46.345zM608.734 684.506c-12.796 12.189-33.050 11.695-45.239-1.103s-11.695-33.053 1.105-45.241l44.134 46.345zM810.667 416c17.673 0 32 14.327 32 32s-14.327 32-32 32v-64zM213.333 480c-17.673 0-32-14.327-32-32s14.327-32 32-32v64zM608.734 211.494l224 213.333-44.134 46.345-224-213.333 44.134-46.345zM832.734 471.172l-224 213.333-44.134-46.345 224-213.333 44.134 46.345zM810.667 480h-597.333v-64h597.333v64z" />
<glyph unicode="&#xe927;" glyph-name="hide" d="M191.537 187.739l-93.867-93.44c-3.999-3.965-7.173-8.687-9.339-13.887s-3.281-10.775-3.281-16.407c0-5.632 1.115-11.207 3.281-16.407s5.34-9.921 9.339-13.887c3.966-3.999 8.685-7.174 13.884-9.341 5.2-2.162 10.776-3.277 16.409-3.277s11.209 1.115 16.408 3.277c5.199 2.167 9.919 5.342 13.885 9.341l130.56 130.987 637.442 637.013c8.033 8.034 12.544 18.931 12.544 30.294s-4.511 22.259-12.544 30.293c-8.038 8.034-18.933 12.547-30.293 12.547-11.366 0-22.261-4.514-30.293-12.547l-109.227-109.653c-130.372 65.073-281.2 75.885-419.517 30.073s-252.871-144.523-318.618-274.553c-9.48-18.637-14.421-39.251-14.421-60.16s4.941-41.523 14.421-60.161c40.664-79.758 100.114-148.434 173.227-200.107zM404.87 448.006c0 14.044 2.773 27.949 8.16 40.918s13.282 24.747 23.232 34.658c9.95 9.911 21.759 17.758 34.75 23.094s26.907 8.053 40.951 7.996c13.278-0.009 26.441-2.468 38.827-7.253l-138.24-138.239c-4.785 12.386-7.244 25.548-7.253 38.827h-0.427zM93.83 469.34c39.327 77.066 99.193 141.761 172.982 186.938s158.631 69.078 245.151 69.061c61.954-0.156 123.275-12.479 180.482-36.267l-78.507-78.933c-30.458 19.458-65.835 29.819-101.976 29.866-50.887-0.113-99.657-20.377-135.64-56.36s-56.247-84.753-56.36-135.64c0.047-36.141 10.408-71.516 29.867-101.974l-96.427-96c-67.42 44.14-122.251 105-159.147 176.641-3.745 6.486-5.716 13.843-5.716 21.333s1.971 14.847 5.716 21.333h-0.427zM935.646 613.126c-1.746 1.424-3.601 2.708-5.547 3.84l-7.253 4.693c-2.441 1.101-5.029 1.821-7.68 2.134-2.685 0.445-5.427 0.445-8.107 0h-7.68c-2.685 0.445-5.427 0.445-8.107 0-2.685-1.019-5.257-2.305-7.68-3.841-1.946-0.98-3.8-2.122-5.547-3.413l-456.536-454.827c0 0 0-2.987-2.987-4.267-2.042-2.321-3.764-4.904-5.12-7.68-1.236-2.566-2.097-5.296-2.56-8.107 0 0 0-3.413 0-5.12-0.042-0.711-0.042-1.422 0-2.133-0.438-3.112-0.438-6.275 0-9.387-0.242-2.412-0.242-4.841 0-7.253 0.961-2.497 2.102-4.921 3.413-7.253l4.693-6.827c0 0 0 0 0-2.133s2.987-2.133 4.267-3.413l7.253-4.693c2.763-1.104 5.618-1.963 8.533-2.56 0 0 2.987 0 5.12 0h4.693c20.931-3.004 42.012-4.858 63.147-5.547 102.163 0.068 202.322 28.353 289.43 81.732 87.103 53.379 157.781 129.781 204.225 220.774 9.478 18.637 14.421 39.251 14.421 60.161s-4.944 41.523-14.421 60.16c-18.529 36.873-40.988 71.634-66.987 103.68l-2.987 1.28zM929.673 426.673c-35.908-70.531-89.173-130.765-154.789-175.031-65.61-44.265-141.409-71.1-220.253-77.983l346.029 345.601c11.162-15.886 21.146-32.571 29.867-49.92 3.612-6.561 5.439-13.958 5.291-21.448-0.154-7.49-2.27-14.808-6.144-21.219z" />
<glyph unicode="&#xe928;" glyph-name="play" d="M691.456 448l-371.456 215.488v-430.976zM742.144 492.544c15.541-9.018 25.825-25.58 25.825-44.544s-10.284-35.526-25.58-44.412l-0.245-0.132-407.232-236.288c-33.28-19.328-78.912 2.752-78.912 44.544v472.576c0 41.792 45.632 63.872 78.912 44.544z" />
<glyph unicode="&#xe929;" glyph-name="company" horiz-adv-x="1029" d="M901.972 558.182h-110.114v223.228c-0.036 28.45-11.352 55.724-31.458 75.841s-47.364 31.437-75.797 31.475h-149.681v36.728c0 9.741-3.867 19.082-10.749 25.97-6.885 6.888-16.221 10.757-25.957 10.757s-19.071-3.869-25.954-10.757c-6.884-6.888-10.751-16.229-10.751-25.97v-36.728h-149.683c-28.433-0.038-55.691-11.358-75.796-31.475s-31.418-47.391-31.457-75.841v-223.228h-110.115c-29.204 0-57.213-11.609-77.863-32.272s-32.252-48.688-32.252-77.91v-477.454c0-9.741 3.867-19.082 10.751-25.969s16.22-10.76 25.954-10.76h954.333c9.736 0 19.071 3.872 25.953 10.76 6.887 6.887 10.755 16.228 10.755 25.969v477.454c0 29.222-11.602 57.247-32.253 77.91s-48.658 32.272-77.866 32.272zM204.576 374.547h-36.705c-9.735 0-19.071-3.872-25.955-10.76s-10.751-16.228-10.751-25.969c0-9.741 3.867-19.082 10.751-25.969s16.22-10.76 25.955-10.76h36.705v-73.453h-36.705c-9.735 0-19.071-3.872-25.955-10.76s-10.751-16.228-10.751-25.969c0-9.741 3.867-19.082 10.751-25.969s16.22-10.76 25.955-10.76h36.705v-146.905h-146.82v440.725c0 9.74 3.867 19.082 10.75 25.97s16.22 10.757 25.955 10.757h110.115v-110.18zM424.513 7.275l0.294 220.363h146.819v-220.363h-147.112zM718.448 7.275h-73.411v222.494c-0.021 18.91-7.537 37.041-20.896 50.41-13.364 13.374-31.484 20.891-50.384 20.911h-151.079c-18.899-0.021-37.018-7.537-50.382-20.911-13.364-13.369-20.88-31.5-20.899-50.41v-222.494h-73.41v774.136c0 8.981 3.565 17.594 9.912 23.944s14.955 9.918 23.93 9.918h372.775c8.977 0 17.585-3.568 23.931-9.918s9.913-14.963 9.913-23.944v-774.136zM938.681 7.275h-146.822v146.905h36.703c9.736 0 19.071 3.872 25.959 10.76 6.882 6.887 10.749 16.228 10.749 25.969s-3.867 19.082-10.749 25.969c-6.887 6.887-16.223 10.76-25.959 10.76h-36.703v73.453h36.703c9.736 0 19.071 3.872 25.959 10.76 6.882 6.887 10.749 16.228 10.749 25.969s-3.867 19.082-10.749 25.969c-6.887 6.887-16.223 10.76-25.959 10.76h-36.703v110.18h110.114c9.736 0 19.071-3.869 25.953-10.757 6.887-6.888 10.755-16.23 10.755-25.97v-440.725zM461.512 705.091c0-9.741-3.867-19.083-10.75-25.97s-16.22-10.757-25.955-10.757h-36.705c-9.735 0-19.071 3.869-25.955 10.757s-10.75 16.229-10.75 25.97c0 9.74 3.867 19.082 10.75 25.97s16.22 10.757 25.955 10.757h36.705c9.735 0 19.071-3.87 25.955-10.757s10.75-16.23 10.75-25.97zM645.037 705.091c0-9.741-3.867-19.083-10.749-25.97s-16.218-10.757-25.953-10.757h-36.708c-9.731 0-19.071 3.869-25.953 10.757s-10.749 16.229-10.749 25.97c0 9.74 3.867 19.082 10.749 25.97s16.223 10.757 25.953 10.757h36.708c9.736 0 19.071-3.87 25.953-10.757s10.749-16.23 10.749-25.97zM461.512 558.182c0-9.741-3.867-19.082-10.75-25.97s-16.22-10.757-25.955-10.757h-36.705c-9.735 0-19.071 3.869-25.955 10.757s-10.75 16.229-10.75 25.97c0 9.74 3.867 19.082 10.75 25.97s16.22 10.757 25.955 10.757h36.705c9.735 0 19.071-3.869 25.955-10.757s10.75-16.23 10.75-25.97zM645.037 558.182c0-9.741-3.867-19.082-10.749-25.97s-16.218-10.757-25.953-10.757h-36.708c-9.731 0-19.071 3.869-25.953 10.757s-10.749 16.229-10.749 25.97c0 9.74 3.867 19.082 10.749 25.97s16.223 10.757 25.953 10.757h36.708c9.736 0 19.071-3.869 25.953-10.757s10.749-16.23 10.749-25.97zM461.512 411.271c0-9.741-3.867-19.082-10.75-25.969s-16.22-10.755-25.955-10.755h-36.705c-9.735 0-19.071 3.867-25.955 10.755s-10.75 16.228-10.75 25.969c0 9.741 3.867 19.082 10.75 25.974 6.884 6.885 16.22 10.755 25.955 10.755h36.705c9.735 0 19.071-3.869 25.955-10.755 6.883-6.893 10.75-16.233 10.75-25.974zM645.037 411.271c0-9.741-3.867-19.082-10.749-25.969s-16.218-10.755-25.953-10.755h-36.708c-9.731 0-19.071 3.867-25.953 10.755s-10.749 16.228-10.749 25.969c0 9.741 3.867 19.082 10.749 25.974 6.882 6.885 16.223 10.755 25.953 10.755h36.708c9.736 0 19.071-3.869 25.953-10.755 6.882-6.893 10.749-16.233 10.749-25.974z" />
<glyph unicode="&#xe92a;" glyph-name="upload-files" horiz-adv-x="890" d="M867.39 648.797l-283.63 270.486c-14.723 14.056-34.691 21.961-55.523 21.979h-449.669c-20.838 0-40.822-7.894-55.556-21.946s-23.012-33.11-23.012-52.981v-124.878c0-6.624 2.759-12.977 7.671-17.66s11.573-7.315 18.519-7.315c6.946 0 13.607 2.631 18.519 7.315s7.671 11.036 7.671 17.66v124.878c0 6.624 2.759 12.977 7.671 17.66s11.573 7.315 18.519 7.315h445.217v-224.78c0-19.872 8.277-38.93 23.013-52.981 14.732-14.052 34.718-21.946 55.554-21.946h235.703v-574.439c0-6.625-2.756-12.978-7.671-17.662-4.911-4.684-11.571-7.315-18.517-7.315h-733.299c-6.946 0-13.607 2.631-18.519 7.315s-7.671 11.037-7.671 17.662v624.39c0 6.624-2.759 12.977-7.671 17.66s-11.573 7.315-18.519 7.315c-6.946 0-13.607-2.631-18.519-7.315s-7.671-11.036-7.671-17.66v-624.39c0-19.87 8.278-38.93 23.012-52.981s34.718-21.945 55.556-21.945h733.299c20.836 0 40.822 7.894 55.554 21.945 14.737 14.051 23.013 33.111 23.013 52.981v578.685c-0.018 19.865-8.308 38.91-23.044 52.948zM576.165 666.529v189.565l224.964-214.54h-198.776c-6.945 0-13.606 2.632-18.517 7.315s-7.671 11.036-7.671 17.66zM594.757 384.557c2.458-2.324 4.403-5.084 5.734-8.13 1.327-3.045 2.012-6.309 2.012-9.603 0-3.299-0.686-6.563-2.012-9.608-1.331-3.041-3.277-5.806-5.734-8.125-2.435-2.342-5.329-4.198-8.521-5.467s-6.616-1.923-10.071-1.923c-3.459 0-6.883 0.654-10.071 1.923-3.192 1.269-6.091 3.125-8.526 5.467l-86.163 82.419v-289.467c0-6.625-2.756-12.978-7.671-17.662-4.911-4.684-11.571-7.315-18.517-7.315s-13.607 2.631-18.519 7.315c-4.911 4.684-7.67 11.037-7.67 17.662v289.467l-86.163-82.419c-4.932-4.706-11.62-7.346-18.595-7.346s-13.663 2.64-18.594 7.346c-4.932 4.701-7.702 11.081-7.702 17.733s2.771 13.027 7.702 17.733l130.946 124.875c2.435 2.342 5.331 4.198 8.523 5.469 3.191 1.268 6.615 1.921 10.072 1.921 3.459 0 6.879-0.653 10.071-1.921 3.192-1.27 6.091-3.127 8.521-5.469l130.947-124.875z" />
<glyph unicode="&#xe92b;" glyph-name="upload-files-1" horiz-adv-x="943" d="M83.175 955.937h476.079c19.758-0.016 38.704-6.827 53.191-18.952l2.841-2.492 300.286-277.255c14.809-13.655 23.076-32.111 23.095-51.285v-593.159c-0.002-19.18-8.259-37.649-23.063-51.317-14.815-13.676-34.97-21.411-56.049-21.413h-776.381c-21.078 0.002-41.233 7.737-56.048 21.413-14.805 13.668-23.062 32.137-23.064 51.317v640c0 5.603 2.403 11.059 6.81 15.128 4.418 4.078 10.481 6.412 16.857 6.412 6.373 0 12.425-2.337 16.841-6.412 4.407-4.068 6.825-9.525 6.825-15.128v-640c0.002-7.974 3.437-15.547 9.429-21.080 5.98-5.52 14.021-8.569 22.349-8.571h776.381c8.329 0.002 16.369 3.051 22.349 8.571 5.991 5.533 9.427 13.106 9.429 21.080v592.873h-253.603c-21.085 0-41.248 7.732-56.065 21.413-14.806 13.67-23.063 32.137-23.063 51.317v234.46h-475.429c-8.328-0.002-16.369-3.051-22.349-8.571-5.992-5.532-9.427-13.105-9.429-21.079v-128c0-5.603-2.419-11.059-6.825-15.128-4.417-4.075-10.469-6.412-16.841-6.412-6.376 0-12.44 2.334-16.857 6.412-4.406 4.068-6.81 9.525-6.81 15.128v128c0.002 19.179 8.259 37.649 23.064 51.318 14.815 13.676 34.969 21.411 56.048 21.413zM471.365 520.889c3.168 0 6.298-0.58 9.206-1.699s5.528-2.758 7.714-4.793h0.016l138.635-128.016c2.202-2.017 3.937-4.402 5.11-7.001s1.778-5.38 1.778-8.174c0-2.796-0.605-5.573-1.778-8.174s-2.906-4.998-5.11-7.017l-0.016-0.016c-2.186-2.035-4.806-3.675-7.714-4.793s-6.040-1.699-9.206-1.699c-3.166 0-6.298 0.58-9.206 1.699s-5.528 2.758-7.714 4.793l-98.047 90.811v-275.128c0-5.599-2.407-11.043-6.81-15.111-4.418-4.078-10.481-6.428-16.857-6.428s-12.439 2.35-16.857 6.428c-4.403 4.068-6.81 9.512-6.81 15.111v275.128l-98.047-90.795c-4.437-4.098-10.515-6.459-16.92-6.459s-12.498 2.362-16.937 6.459c-4.424 4.088-6.841 9.562-6.841 15.191 0.002 5.627 2.415 11.103 6.841 15.191l138.651 128c2.186 2.035 4.806 3.675 7.714 4.793s6.038 1.699 9.206 1.699zM605.937 678.397c0.002-7.974 3.438-15.547 9.429-21.080 5.981-5.523 14.034-8.587 22.365-8.587h220.841l-252.635 233.254v-203.587z" />
<glyph unicode="&#xe92c;" d="M512 960c282.77 0 512-229.23 512-512s-229.23-512-512-512c-282.77 0-512 229.23-512 512s229.23 512 512 512z" />
<glyph unicode="&#xe92d;" glyph-name="Vector-231" d="M972.707 391.773c-8.684 6.729-15.711 15.35-20.543 25.21-4.837 9.865-7.348 20.699-7.348 31.681s2.511 21.816 7.348 31.679c4.832 9.861 11.859 18.484 20.543 25.21 22.343 17.261 38.38 41.396 45.641 68.68s5.339 56.2-5.471 82.283c-10.806 26.083-29.901 47.883-54.331 62.034-24.435 14.151-52.843 19.867-80.847 16.265-10.85-1.335-21.865-0.179-32.207 3.38-10.338 3.559-19.734 9.427-27.463 17.16-7.734 7.733-13.605 17.125-17.164 27.465-3.555 10.34-4.71 21.355-3.379 32.209 3.604 28.003-2.111 56.413-16.262 80.845s-35.952 43.525-62.035 54.333c-26.083 10.809-54.999 12.731-82.281 5.47-27.287-7.261-51.424-23.301-68.681-45.644-6.997-8.268-15.711-14.91-25.537-19.467s-20.524-6.917-31.354-6.917c-10.83 0-21.528 2.36-31.354 6.917s-18.539 11.199-25.535 19.467c-17.261 22.343-41.396 38.383-68.68 45.644s-56.2 5.338-82.283-5.47c-26.083-10.809-47.883-29.902-62.034-54.333s-19.867-52.842-16.265-80.845c1.335-10.853 0.179-21.868-3.38-32.209s-9.427-19.732-17.16-27.465c-7.733-7.733-17.125-13.601-27.466-17.16s-21.355-4.715-32.208-3.38c-28.003 3.603-56.413-2.113-80.845-16.265s-43.525-35.951-54.333-62.034c-10.809-26.083-12.731-54.999-5.47-82.283s23.301-51.419 45.644-68.68c8.682-6.726 15.709-15.349 20.543-25.21 4.834-9.863 7.347-20.697 7.347-31.679s-2.513-21.816-7.347-31.681c-4.834-9.86-11.861-18.481-20.543-25.21-22.343-17.257-38.383-41.394-45.644-68.681-7.261-27.282-5.338-56.198 5.47-82.281s29.902-47.884 54.333-62.035c24.432-14.151 52.842-19.866 80.845-16.262 10.853 1.331 21.868 0.176 32.208-3.379 10.34-3.56 19.733-9.431 27.466-17.164 7.733-7.729 13.601-17.125 17.16-27.463 3.559-10.342 4.715-21.358 3.38-32.207-4.165-28.087 1.298-56.754 15.501-81.34s36.31-43.637 62.72-54.057c16.161-6.641 33.445-10.118 50.916-10.24 19.478 0.068 38.672 4.676 56.054 13.468 17.382 8.787 32.473 21.514 44.071 37.161 6.996 8.27 15.71 14.911 25.535 19.466 9.826 4.559 20.524 6.919 31.354 6.919s21.528-2.36 31.354-6.919c9.826-4.554 18.539-11.196 25.537-19.466 17.257-22.343 41.394-38.38 68.681-45.641 27.282-7.261 56.198-5.339 82.281 5.471 26.083 10.806 47.884 29.901 62.035 54.331 14.151 24.435 19.866 52.843 16.262 80.847-1.331 10.85-0.176 21.865 3.379 32.207 3.56 10.338 9.431 19.734 17.164 27.463 7.729 7.734 17.125 13.605 27.463 17.164 10.342 3.555 21.358 4.71 32.207 3.379 28.058-3.911 56.617 1.663 81.145 15.833 24.527 14.175 43.622 36.128 54.252 62.386 11.362 26.034 13.551 55.145 6.212 82.583-7.334 27.438-23.767 51.575-46.602 68.457zM960.473 262.636c-5.793-14.721-16.389-27.058-30.071-35.006-13.678-7.953-29.642-11.049-45.305-8.797-19.495 2.506-39.312 0.512-57.915-5.832-18.608-6.349-35.508-16.876-49.41-30.774-13.897-13.902-24.425-30.803-30.774-49.41-6.344-18.603-8.338-38.42-5.832-57.915 2.063-15.653-1.102-31.549-9.001-45.222-7.899-13.668-20.090-24.347-34.684-30.379-14.59-6.032-30.764-7.075-46.012-2.974-15.243 4.106-28.706 13.127-38.302 25.668-12.468 14.882-28.048 26.853-45.641 35.070-17.593 8.212-36.771 12.468-56.188 12.468s-38.597-4.257-56.19-12.468c-17.594-8.216-33.173-20.187-45.641-35.070-9.592-12.542-23.057-21.563-38.303-25.668-15.246-4.101-31.42-3.057-46.011 2.974s-26.783 16.711-34.682 30.379c-7.899 13.673-11.065 29.569-9.003 45.222 2.518 18.183 1.113 36.693-4.12 54.287-5.233 17.598-14.174 33.865-26.219 47.718-12.046 13.848-26.918 24.961-43.616 32.588-16.698 7.621-34.835 11.581-53.191 11.61-5.586 0.424-11.196 0.424-16.782 0-15.667-2.302-31.653 0.775-45.345 8.728-13.691 7.958-24.28 20.324-30.033 35.079-6.788 14.609-8.257 31.134-4.154 46.719 4.103 15.579 13.521 29.238 26.625 38.615 15.582 12.010 28.201 27.433 36.883 45.090 8.683 17.652 13.198 37.064 13.198 56.739s-4.515 39.086-13.198 56.74c-8.682 17.654-21.301 33.081-36.883 45.091-12.54 9.592-21.563 23.057-25.666 38.303s-3.059 31.42 2.973 46.011c6.031 14.592 16.711 26.783 30.381 34.682s29.566 11.065 45.219 9.003c19.486-2.451 39.274-0.416 57.853 5.95s35.457 16.895 49.344 30.782c13.887 13.887 24.416 30.765 30.782 49.344s8.402 38.367 5.95 57.853c-1.162 15.348 2.646 30.663 10.863 43.678s20.405 23.040 34.761 28.592c14.356 5.551 30.118 6.333 44.954 2.231s27.957-12.871 37.422-25.009c12.468-14.885 28.047-26.855 45.641-35.068s36.773-12.47 56.19-12.47c19.417 0 38.595 4.256 56.188 12.47s33.173 20.184 45.641 35.068c9.596 12.54 23.060 21.563 38.302 25.666 15.248 4.103 31.422 3.059 46.012-2.973 14.594-6.031 26.785-16.711 34.684-30.381s11.064-29.566 9.001-45.219c-2.448-19.486-0.414-39.274 5.954-57.853 6.363-18.579 16.891-35.457 30.779-49.344s30.769-24.416 49.347-30.782c18.578-6.366 38.366-8.402 57.851-5.95 15.653 2.061 31.549-1.104 45.222-9.003 13.668-7.899 24.347-20.091 30.379-34.682s7.075-30.765 2.974-46.011c-4.106-15.246-13.127-28.711-25.668-38.303-15.584-12.011-28.199-27.437-36.884-45.091s-13.195-37.064-13.195-56.74c0-19.675 4.51-39.088 13.195-56.739 8.684-17.657 21.299-33.080 36.884-45.090 12.839-9.323 22.084-22.782 26.175-38.112s2.784-31.603-3.706-46.085z" />
<glyph unicode="&#xe92e;" glyph-name="work" horiz-adv-x="996" d="M959.516 400.751c17.441 0 31.61-14.13 31.694-31.599l-1.469-19.15c-2.148-27.854-9.778-172.21-10.919-191.354-2.777-45.746-20.53-92.355-47.265-124.55l-0.006-0.006c-37.198-44.95-84.441-66.015-149.465-66.159-190.536-0.178-381.078-0.178-571.618 0h0.005c-65.072 0.145-112.314 21.209-149.511 66.159l-0.006 0.006c-26.689 32.2-44.491 78.809-47.217 124.544v0.006c-1.117 18.482-5.139 127.343-7.277 155.425l-3.424 54.445c0.072 17.48 14.252 31.627 31.707 31.627 2.921 0 5.742-0.406 8.413-1.158 4.368-2.588 8.764-5.142 13.19-7.652 5.033-4.914 8.447-11.537 9.375-18.966l0.152-1.53c0.005-0.083 0.013-0.217 0.022-0.384 0.018-0.339 0.046-0.851 0.082-1.514 0.071-1.336 0.175-3.289 0.309-5.788 0.269-5.003 0.657-12.182 1.125-20.875 0.937-17.391 2.199-40.871 3.516-65.202 2.635-48.657 5.481-100.786 6.304-114.554v-0.006c1.906-31.56 14.621-65.92 32.663-87.708v-0.006c12.654-15.26 26.207-26.134 42.608-33.135 15.32-6.539 32.797-9.561 53.793-9.956l4.25-0.045c46.2-0.072 309.841-0.095 464.785-0.061l106.63 0.061c22.923 0.050 41.722 3.016 58.051 9.978 16.39 6.99 29.913 17.853 42.541 33.107l0.006-0.006c18.148 21.843 30.865 56.203 32.774 87.719v0.017c0.796 13.763 4.057 66.009 7.123 114.844 1.53 24.409 3.016 47.961 4.113 65.414 0.551 8.721 1.002 15.922 1.313 20.936 0.161 2.51 0.289 4.474 0.373 5.81 0.039 0.668 0.078 1.18 0.095 1.525l0.028 0.49c0 0.011 0.006 0.022 0.006 0.028l-0.006 0.006c0.557 7.908 4.074 15.31 9.845 20.725 5.777 5.421 13.379 8.459 21.293 8.493zM494.761 311.157c8.434 0 16.523-3.356 22.49-9.333 5.965-5.977 9.32-14.080 9.321-22.534v-64.584c-0.001-8.454-3.355-16.557-9.321-22.534s-14.056-9.333-22.49-9.333c-8.434 0-16.523 3.356-22.489 9.333s-9.32 14.080-9.321 22.534v64.584c0.001 8.454 3.355 16.557 9.321 22.534s14.056 9.333 22.489 9.333zM559.076 941.711l3.222-0.049c33.23-0.863 65.141-13.411 90.101-35.505 25.761-22.808 42.357-54.229 46.687-88.397l0.623-4.865h103.418c101.521 0 184.153-82.744 184.153-184.489v-173.038c0-5.269-1.302-10.456-3.79-15.098-2.488-4.643-6.088-8.597-10.468-11.511-102.027-67.588-223.176-112.672-350.408-130.33-7.752-1.052-15.622 0.785-22.111 5.165-6.083 4.102-10.563 10.179-12.694 17.18l-0.395 1.414c-10.707 42.234-48.939 71.669-92.904 71.669-21.398 0.161-42.243-6.801-59.261-19.79-15.965-12.188-27.711-29.034-33.658-48.167l-1.114-3.851c-1.997-7.485-6.667-13.98-13.125-18.237-6.458-4.263-14.255-6.005-21.907-4.886l-0.032 0.006c-107.657 15.043-211.176 49.875-302.478 101.482-4.354 3.946-9.526 6.994-15.266 8.842-10.556 6.28-20.943 12.783-31.136 19.517-8.946 5.902-14.293 15.883-14.293 26.598v173.027c0.103 48.979 19.604 95.915 54.223 130.505s81.527 54.007 130.424 53.994h102.929l0.619 4.865c4.332 34.167 20.926 65.589 46.69 88.397 24.959 22.095 56.869 34.642 90.098 35.505l3.223 0.049h128.631zM430.424 877.977c-36.169-0.001-66.291-24.812-75.288-58.065l-1.897-7.017h282.982l-1.887 7.011c-8.943 33.264-39.123 58.070-75.236 58.071h-128.675zM923.665 628.412c-0.028 32.004-12.733 62.694-35.328 85.331s-53.231 35.376-85.198 35.419l-619.247-0.038c-30.938-0.755-60.458-13.358-82.435-35.283-22.687-22.633-35.487-53.352-35.598-85.418v-155.706l2.652-1.625c84.771-52.025 178.633-87.47 276.598-104.449l4.038-0.701 1.864 3.645c27.174 53.127 82.344 88.004 143.5 88.005h0.017c29.685 0.078 58.804-8.158 84.066-23.777 25.261-15.619 45.657-38.004 58.891-64.617l1.853-3.723 4.096 0.723c100.035 17.636 195.1 53.561 277.604 104.91l2.627 1.636v155.669z" />
<glyph unicode="&#xe92f;" d="M512 960c282.77 0 512-229.23 512-512s-229.23-512-512-512c-282.77 0-512 229.23-512 512s229.23 512 512 512z" />
<glyph unicode="&#xe930;" glyph-name="calender" horiz-adv-x="1067" d="M264.666 271.526c0 20.361 18.853 36.86 42.109 36.86h299.782c23.253 0 42.108-16.499 42.108-36.86 0-20.356-18.854-36.86-42.108-36.86h-299.782c-23.256 0-42.109 16.503-42.109 36.86zM306.775 448c-23.256 0-42.109-16.499-42.109-36.86 0-20.356 18.853-36.86 42.109-36.86h168.437c23.253 0 42.108 16.503 42.108 36.86 0 20.361-18.854 36.86-42.108 36.86h-168.437zM321.556 917.333c23.564 0 42.667-19.103 42.667-42.667v-14.418c21.249 0.196 43.893 0.196 67.986 0.196h176.913c24.094 0 46.741 0 67.989-0.196v14.418c0 23.564 19.102 42.667 42.667 42.667 23.569 0 42.667-19.103 42.667-42.667v-17.224c12.907-0.908 25.071-2.089 36.51-3.627 51.204-6.885 94.323-21.613 128.563-55.855 34.244-34.243 48.973-77.357 55.855-128.563 6.635-49.321 6.635-112.029 6.626-189.828v-175.829c0-51.439 0.009-92.928-3.029-126.396-3.123-34.492-9.741-64.631-25.549-92.011-18.726-32.431-45.658-59.362-78.089-78.084-27.375-15.804-57.515-22.421-92.011-25.549-33.468-3.034-74.953-3.034-126.396-3.034h-232.713c-77.801 0-140.512 0-189.833 6.626-51.206 6.886-94.321 21.615-128.563 55.855-34.243 34.249-48.971 77.359-55.855 128.563-6.631 49.323-6.63 112.030-6.629 189.833v120.026c-0.001 77.8-0.003 140.508 6.629 189.828 6.885 51.206 21.612 94.321 55.855 128.563 34.242 34.243 77.357 48.971 128.563 55.855 11.441 1.538 23.604 2.719 36.509 3.627v17.224c0 23.564 19.102 42.667 42.667 42.667zM677.111 774.9c-21.41 0.202-44.996 0.211-71.113 0.211h-170.667c-26.112 0-49.699-0.009-71.11-0.211v-14.011c0-23.564-19.103-42.667-42.667-42.667s-42.667 19.103-42.667 42.667v10.995c-8.895-0.712-17.252-1.58-25.138-2.641-41.744-5.612-63.849-15.878-79.594-31.622s-26.010-37.85-31.623-79.594c-1.060-7.887-1.929-16.244-2.641-25.138h761.546c-0.713 8.895-1.583 17.252-2.641 25.138-5.615 41.744-15.876 63.849-31.625 79.594-15.74 15.744-37.845 26.010-79.59 31.622-7.885 1.061-16.243 1.929-25.139 2.641v-10.995c0-23.564-19.098-42.667-42.667-42.667-23.565 0-42.667 19.103-42.667 42.667v14.011zM136.877 547.555c-0.201-21.411-0.21-44.998-0.21-71.11v-113.779c0-81.66 0.090-138.611 5.868-181.585 5.613-41.745 15.878-63.846 31.623-79.59 15.745-15.748 37.85-26.010 79.594-31.625 42.971-5.777 99.923-5.867 181.581-5.867h227.554c53.961 0 91.571 0.038 120.73 2.684 28.582 2.59 44.826 7.407 57.050 14.464 19.46 11.234 35.618 27.396 46.852 46.852 7.061 12.224 11.874 28.471 14.468 57.050 2.641 29.158 2.679 66.773 2.679 120.73v170.667c0 26.112-0.004 49.698-0.209 71.11h-767.579z" />
<glyph unicode="&#xe931;" glyph-name="Vector-6" horiz-adv-x="534" d="M435.712 790.015h96.256v162.816c-46.605 4.846-93.433 7.239-140.288 7.168-139.264 0-234.496-84.992-234.496-240.64v-134.144h-157.184v-182.271h157.184v-466.944h188.416v466.944h156.672l23.552 182.271h-180.224v116.224c0 53.76 14.336 88.576 90.112 88.576z" />
<glyph unicode="&#xe932;" glyph-name="Vector-5" d="M1024-64h-204.8v358.349c0 98.304-43.366 153.139-121.139 153.139-84.634 0-134.861-57.139-134.861-153.139v-358.349h-204.799v665.6h204.799v-74.854c0 0 64.256 112.742 209.050 112.742 144.845 0 251.75-88.371 251.75-271.258v-432.23zM125.031 708.045c-16.484 0.060-32.795 3.368-48.001 9.734s-29.008 15.665-40.619 27.365c-11.611 11.701-20.803 25.575-27.050 40.83s-9.428 31.59-9.361 48.074c-0.061 16.48 3.125 32.81 9.376 48.058s15.443 29.117 27.054 40.813c11.61 11.696 25.41 20.99 40.612 27.353s31.509 9.668 47.989 9.729c33.273-0.136 65.131-13.48 88.568-37.099s36.534-55.579 36.411-88.853c0.074-16.482-3.101-32.816-9.343-48.071s-15.429-29.128-27.035-40.83c-11.607-11.702-25.406-21.001-40.609-27.367s-31.511-9.674-47.992-9.735zM0.001-64h256v665.6h-256v-665.6z" />
<glyph unicode="&#xe933;" glyph-name="Vector-4" horiz-adv-x="860" d="M854.229 531.456v174.49c-78.897 0-139.108 21.811-177.967 64.205-39.879 48.382-62.218 109.654-63.177 173.261v12.595l-159.277 3.994v-708.71c-5.464-30.921-19.956-59.363-41.521-81.482-21.564-22.122-49.162-36.856-79.069-42.217s-60.681-1.090-88.169 12.239c-27.488 13.328-50.366 35.070-65.545 62.292s-21.929 58.61-19.338 89.932c2.591 31.318 14.398 61.063 33.827 85.213s45.545 41.546 74.821 49.836c29.276 8.29 60.304 7.078 88.894-3.473v168.96c-16.669 2.829-33.531 4.267-50.423 4.301-60.775 0-120.186-18.665-170.718-53.637s-89.918-84.677-113.176-142.832c-23.258-58.151-29.343-122.143-17.486-183.882 11.857-61.735 41.123-118.444 84.097-162.951 42.974-44.511 97.727-74.822 157.335-87.101s121.392-5.976 177.542 18.113c56.148 24.084 104.141 64.881 137.904 117.215 33.767 52.339 51.786 113.869 51.786 176.816-0.033 13.042-0.823 26.071-2.372 39.014v281.088c72.425-46.846 156.692-70.271 242.033-67.277z" />
<glyph unicode="&#xe934;" glyph-name="Vector-3" horiz-adv-x="1205" d="M1204.706 842.505c-45.279-19.643-93.16-32.627-142.155-38.551 51.694 30.881 90.431 79.464 109.026 136.734-48.574-28.917-101.749-49.291-157.214-60.235-37.075 40.203-86.438 66.964-140.36 76.086-53.917 9.122-109.345 0.090-157.576-25.681-48.236-25.771-86.552-66.821-108.942-116.715-22.386-49.893-27.582-105.806-14.77-158.971-98.218 4.968-194.293 30.542-281.982 75.062s-165.033 106.988-227.006 183.348c-21.737-37.958-33.158-80.945-33.129-124.687-0.077-40.621 9.892-80.632 29.019-116.469s46.818-66.388 80.609-88.934c-39.275 1.069-77.71 11.607-112.038 30.72v-3.012c0.294-56.916 20.238-111.983 56.459-155.887s86.495-73.949 142.317-85.054c-21.488-6.54-43.799-9.988-66.259-10.24-15.547 0.181-31.056 1.591-46.381 4.216 15.897-48.959 46.659-91.744 88.008-122.41 41.349-30.66 91.227-47.67 142.693-48.658-86.907-68.385-194.206-105.707-304.791-106.014-20.135-0.066-40.253 1.138-60.235 3.614 112.907-72.903 244.484-111.598 378.88-111.435 92.744-0.964 184.75 16.565 270.643 51.555 85.896 34.997 163.954 86.751 229.623 152.251s117.627 143.426 152.841 229.231c35.214 85.805 52.971 177.765 52.248 270.511 0 10.24 0 21.082 0 31.925 47.267 35.249 88.034 78.461 120.471 127.699z" />
<glyph unicode="&#xe935;" glyph-name="Vector-9" horiz-adv-x="1489" d="M160.403-64h1168.647c88.604 0 160.405 68.077 160.405 152.079v719.842c0 84.005-71.801 152.079-160.405 152.079h-1168.647c-88.604 0-160.403-68.074-160.403-152.079v-719.118c0-84.009 71.799-152.803 160.403-152.803zM1329.050 44.628h-1168.647c-25.206 0-45.83 19.553-45.83 43.451v612.662l598.837-375.128c9.93-5.793 20.623-8.69 31.317-8.69s22.151 2.897 31.317 8.69l598.834 375.128v-612.662c0-23.898-20.62-43.451-45.829-43.451zM160.403 851.372h1168.647c17.566 0 38.195 14.483 45.829 0h-1260.305c7.638 13.76 28.261 0 45.83 0z" />
<glyph unicode="&#xe936;" glyph-name="Vector-8" d="M774.7 315.509l-85.644-48.134c-10.278-5.772-22.167-8.031-33.853-6.429s-22.524 6.973-30.862 15.296l-285.848 285.171c-8.336 8.321-13.717 19.134-15.321 30.789s0.655 23.516 6.434 33.771l48.249 85.441c8.685 15.378 12.086 33.169 9.682 50.656s-10.479 33.709-22.993 46.186l-128.363 128.059c-7.524 7.509-16.456 13.466-26.288 17.531s-20.37 6.156-31.012 6.156c-10.643 0-21.181-2.092-31.013-6.156s-18.764-10.021-26.288-17.531l-58.284-58.105c-34.083-34.001-55.792-78.394-61.678-126.119s4.392-96.044 29.198-137.272l29.244-48.625c149.343-248.311 360.138-454.175 612.163-597.842l5.775-3.308c86.094-49.073 192.466-34.777 261.396 33.957l60.865 60.715c7.522 7.507 13.493 16.423 17.573 26.23 4.072 9.807 6.168 20.322 6.168 30.941 0 10.61-2.095 21.126-6.168 30.933-4.080 9.815-10.051 18.723-17.573 26.229l-128.449 128.141c-12.501 12.5-28.767 20.57-46.308 22.975-17.534 2.406-35.375-0.985-50.801-9.655z" />
<glyph unicode="&#xe937;" d="M512 960c282.77 0 512-229.23 512-512s-229.23-512-512-512c-282.77 0-512 229.23-512 512s229.23 512 512 512z" />
<glyph unicode="&#xe938;" glyph-name="Vector-15" horiz-adv-x="916" d="M763.511 236.21c-38.686 0-73.297-15.425-99.765-39.586l-362.923 213.337c2.545 11.822 4.581 23.645 4.581 35.983s-2.036 24.16-4.581 35.984l358.849 211.277c27.486-25.703 63.628-41.639 103.839-41.639 84.491 0 152.7 68.883 152.7 154.217s-68.209 154.217-152.7 154.217c-84.496 0-152.705-68.883-152.705-154.217 0-12.337 2.037-24.16 4.581-35.984l-358.847-211.277c-27.486 25.703-63.626 41.639-103.837 41.639-84.495 0-152.702-68.883-152.702-154.217s68.207-154.217 152.702-154.217c40.211 0 76.351 15.937 103.837 41.639l362.41-213.849c-2.544-10.795-4.069-22.102-4.069-33.415 0-82.761 66.679-150.102 148.631-150.102 81.947 0 148.626 67.341 148.626 150.102 0 82.766-66.679 150.108-148.626 150.108z" />
<glyph unicode="&#xe939;" glyph-name="Vector-14" d="M960.066 827.493c-51.893 72.265-128.139 119.288-212.004 130.748-83.872 11.461-170.209-34.719-237.051-90.76-66.843 56.041-149.786 102.22-233.654 90.76s-160.113-58.483-212.005-130.748c-47.649-68.497-70.539-153.49-64.364-238.986s40.99-165.601 97.894-225.242l381.993-413.669c3.946-4.307 8.64-7.728 13.812-10.059 5.172-2.337 10.72-3.536 16.323-3.536s11.151 1.199 16.323 3.536c5.172 2.331 9.867 5.752 13.813 10.059l381.995 413.669c57.41 59.166 92.859 139.030 99.659 224.54s-15.511 170.762-62.735 239.688zM866.268 428.533l-353.559-382.874-353.555 382.874c-42.133 43.44-68.249 101.984-73.48 164.728s10.777 125.407 45.043 176.318c20.214 28.486 45.822 51.96 75.104 68.846s61.562 26.793 94.671 29.056h14.007c30.764 0.036 61.23-6.525 89.641-19.305s52.505-52.669 74.191-76.299c3.946-4.308 8.64-7.728 13.813-10.061s10.719-3.535 16.323-3.535c5.603 0 11.151 1.201 16.323 3.535s9.866 5.753 13.812 10.061c23.475 26.226 53.608 67.786 85.052 80.993 31.449 13.207 65.157 18.892 98.822 16.666s66.488-12.313 96.22-29.566c29.726-17.253 55.657-41.266 76.011-70.39 34.262-50.911 50.272-113.575 45.038-176.318-5.228-62.744-31.346-121.289-73.475-164.728z" />
<glyph unicode="&#xe93a;" glyph-name="Vector-18" horiz-adv-x="186" d="M93.091 277.334c24.69 0 48.367 8.99 65.826 24.993s27.265 37.708 27.265 60.34v512c0 22.632-9.808 44.337-27.265 60.34s-41.136 24.994-65.826 24.994c-24.689 0-48.367-8.99-65.825-24.994s-27.266-37.708-27.266-60.34v-512c0-22.631 9.808-44.336 27.266-60.34s41.136-24.993 65.825-24.993zM93.091 106.666c-24.689 0-48.367-8.99-65.825-24.993s-27.266-37.708-27.266-60.337c0-22.63 9.808-44.339 27.266-60.342s41.136-24.995 65.825-24.995c24.69 0 48.367 8.993 65.826 24.995s27.265 37.711 27.265 60.342c0 22.629-9.808 44.334-27.265 60.337s-41.136 24.993-65.826 24.993z" />
<glyph unicode="&#xe93b;" glyph-name="play-button-svgrepo-com" d="M777.986 448l-577.451-398.242v796.484z" />
<glyph unicode="&#xe940;" glyph-name="Vector-13" horiz-adv-x="534" d="M435.712 790.015h96.256v162.816c-46.605 4.846-93.433 7.239-140.288 7.168-139.264 0-234.496-84.992-234.496-240.64v-134.144h-157.184v-182.271h157.184v-466.944h188.416v466.944h156.672l23.552 182.271h-180.224v116.224c0 53.76 14.336 88.576 90.112 88.576z" />
<glyph unicode="&#xe941;" glyph-name="Vector-12" d="M1024-64h-204.8v358.349c0 98.304-43.366 153.139-121.139 153.139-84.634 0-134.861-57.139-134.861-153.139v-358.349h-204.799v665.6h204.799v-74.854c0 0 64.256 112.742 209.050 112.742 144.845 0 251.75-88.371 251.75-271.258v-432.23zM125.031 708.045c-16.484 0.060-32.795 3.368-48.001 9.734s-29.008 15.665-40.619 27.365c-11.611 11.701-20.803 25.575-27.050 40.83s-9.428 31.59-9.361 48.074c-0.061 16.48 3.125 32.81 9.376 48.058s15.443 29.117 27.054 40.813c11.61 11.696 25.41 20.99 40.612 27.353s31.509 9.668 47.989 9.729c33.273-0.136 65.131-13.48 88.568-37.099s36.534-55.579 36.411-88.853c0.074-16.482-3.101-32.816-9.343-48.071s-15.429-29.128-27.035-40.83c-11.607-11.702-25.406-21.001-40.609-27.367s-31.511-9.674-47.992-9.735zM0.001-64h256v665.6h-256v-665.6z" />
<glyph unicode="&#xe942;" glyph-name="Vector-11" horiz-adv-x="860" d="M854.229 531.456v174.49c-78.897 0-139.108 21.811-177.967 64.205-39.879 48.382-62.218 109.654-63.177 173.261v12.595l-159.277 3.994v-708.71c-5.464-30.921-19.956-59.363-41.521-81.482-21.564-22.122-49.162-36.856-79.069-42.217s-60.681-1.090-88.169 12.239c-27.488 13.328-50.366 35.070-65.545 62.292s-21.929 58.61-19.338 89.932c2.591 31.318 14.398 61.063 33.827 85.213s45.545 41.546 74.821 49.836c29.276 8.29 60.304 7.078 88.894-3.473v168.96c-16.669 2.829-33.531 4.267-50.423 4.301-60.775 0-120.186-18.665-170.718-53.637s-89.918-84.677-113.176-142.832c-23.258-58.151-29.343-122.143-17.486-183.882 11.857-61.735 41.123-118.444 84.097-162.951 42.974-44.511 97.727-74.822 157.335-87.101s121.392-5.976 177.542 18.113c56.148 24.084 104.141 64.881 137.904 117.215 33.767 52.339 51.786 113.869 51.786 176.816-0.033 13.042-0.823 26.071-2.372 39.014v281.088c72.425-46.846 156.692-70.271 242.033-67.277z" />
<glyph unicode="&#xe943;" glyph-name="Vector-10" horiz-adv-x="1205" d="M1204.706 842.505c-45.279-19.643-93.16-32.627-142.155-38.551 51.694 30.881 90.431 79.464 109.026 136.734-48.574-28.917-101.749-49.291-157.214-60.235-37.075 40.203-86.438 66.964-140.36 76.086-53.917 9.122-109.345 0.090-157.576-25.681-48.236-25.771-86.552-66.821-108.942-116.715-22.386-49.893-27.582-105.806-14.77-158.971-98.218 4.968-194.293 30.542-281.982 75.062s-165.033 106.988-227.006 183.348c-21.737-37.958-33.158-80.945-33.129-124.687-0.077-40.621 9.892-80.632 29.019-116.469s46.818-66.388 80.609-88.934c-39.275 1.069-77.71 11.607-112.038 30.72v-3.012c0.294-56.916 20.238-111.983 56.459-155.887s86.495-73.949 142.317-85.054c-21.488-6.54-43.799-9.988-66.259-10.24-15.547 0.181-31.056 1.591-46.381 4.216 15.897-48.959 46.659-91.744 88.008-122.41 41.349-30.66 91.227-47.67 142.693-48.658-86.907-68.385-194.206-105.707-304.791-106.014-20.135-0.066-40.253 1.138-60.235 3.614 112.907-72.903 244.484-111.598 378.88-111.435 92.744-0.964 184.75 16.565 270.643 51.555 85.896 34.997 163.954 86.751 229.623 152.251s117.627 143.426 152.841 229.231c35.214 85.805 52.971 177.765 52.248 270.511 0 10.24 0 21.082 0 31.925 47.267 35.249 88.034 78.461 120.471 127.699z" />
<glyph unicode="&#xe944;" d="M712.499 463.754c2.17 0.166 4.352-0.115 6.406-0.832 2.058-0.714 3.942-1.85 5.542-3.328 1.597-1.478 2.874-3.27 3.744-5.267 0.874-1.994 1.322-4.147 1.325-6.323 0-2.179-0.451-4.333-1.322-6.326s-2.144-3.786-3.744-5.264c-1.597-1.478-3.482-2.611-5.536-3.328-2.058-0.714-4.24-0.995-6.41-0.826l-185.29-0.067 0.16-185.29c-0.307-3.965-2.099-7.67-5.018-10.371s-6.749-4.202-10.726-4.202c-3.978 0.003-7.811 1.504-10.733 4.208-2.918 2.704-4.71 6.406-5.021 10.374l-0.157 185.29-185.289-0.067c-4.206 0-8.24 1.674-11.215 4.65-1.473 1.472-2.642 3.219-3.439 5.146-0.797 1.923-1.208 3.987-1.209 6.067-0.001 2.083 0.409 4.147 1.206 6.070s1.964 3.674 3.436 5.146c2.973 2.973 7.007 4.643 11.213 4.64l185.29-0.157-0.048 185.177c0.307 3.966 2.096 7.67 5.018 10.372 2.918 2.701 6.749 4.202 10.726 4.201s7.811-1.503 10.73-4.206c2.922-2.703 4.714-6.408 5.024-10.374l0.045-185.176 185.29 0.064z" />
<glyph unicode="&#xe945;" glyph-name="settings" d="M512.048 597.322c-29.535 0-58.408-8.759-82.966-25.169-24.558-16.406-43.696-39.731-55-67.017s-14.26-57.315-8.498-86.279c5.763-28.968 19.985-55.578 40.871-76.464 20.882-20.882 47.492-35.105 76.46-40.869s58.993-2.805 86.279 8.499c27.29 11.301 50.611 30.442 67.021 55s25.165 53.431 25.165 82.966c0 39.603-15.733 77.59-43.736 105.593-28.006 28.006-65.989 43.74-105.596 43.74zM512.048 341.321c-21.098 0-41.721 6.257-59.26 17.979-17.543 11.717-31.214 28.379-39.285 47.868-8.075 19.493-10.189 40.938-6.071 61.63 4.114 20.692 14.274 39.698 29.191 54.616s33.924 25.077 54.616 29.191c20.692 4.114 42.138 2.004 61.63-6.071 19.489-8.071 36.147-21.745 47.868-39.285 11.721-17.543 17.979-38.166 17.979-59.26 0-28.292-11.238-55.42-31.243-75.425s-47.133-31.243-75.425-31.243zM857.958 405.332c-6.51 5.043-11.783 11.509-15.408 18.907-3.624 7.395-5.511 15.521-5.511 23.757s1.887 16.366 5.511 23.76c3.624 7.395 8.898 13.864 15.408 18.907 16.757 12.946 28.785 31.045 34.231 51.511 5.445 20.462 4.005 42.149-4.1 61.711-8.108 19.562-22.429 35.912-40.752 46.526s-39.632 14.9-60.632 12.198c-8.141-1.001-16.402-0.135-24.159 2.534-7.753 2.669-14.8 7.071-20.597 12.87-5.8 5.799-10.203 12.844-12.869 20.599-2.67 7.755-3.536 16.016-2.534 24.157 2.699 21.002-1.587 42.31-12.2 60.633s-26.964 32.644-46.526 40.75c-19.562 8.106-41.249 9.548-61.711 4.103-20.465-5.445-38.565-17.476-51.511-34.233-5.248-6.2-11.783-11.182-19.152-14.6s-15.393-5.188-23.515-5.188c-8.123 0-16.146 1.77-23.515 5.188s-13.904 8.399-19.149 14.6c-12.946 16.757-31.049 28.788-51.511 34.233-20.465 5.445-42.152 4.004-61.713-4.103s-35.912-22.427-46.526-40.75-14.9-39.631-12.198-60.633c1.001-8.14 0.135-16.402-2.535-24.157s-7.071-14.8-12.87-20.599c-5.799-5.799-12.844-10.201-20.599-12.87s-16.016-3.536-24.156-2.534c-21.002 2.702-42.31-1.585-60.634-12.198s-32.644-26.963-40.75-46.526c-8.106-19.563-9.548-41.25-4.103-61.711 5.445-20.465 17.476-38.565 34.233-51.511 6.511-5.043 11.781-11.513 15.407-18.907s5.511-15.525 5.511-23.76c0-8.236-1.885-16.362-5.511-23.757-3.626-7.398-8.896-13.864-15.407-18.907-16.757-12.946-28.787-31.049-34.233-51.511-5.445-20.465-4.004-42.152 4.103-61.714s22.427-35.909 40.75-46.526c18.323-10.613 39.631-14.899 60.634-12.197 8.14 1.002 16.401 0.135 24.156-2.534s14.8-7.073 20.599-12.869c5.799-5.8 10.201-12.844 12.87-20.601 2.669-7.753 3.536-16.015 2.535-24.155-3.124-21.065 0.974-42.565 11.626-61.005 10.653-18.436 27.232-32.728 47.040-40.543 12.122-4.977 25.083-7.585 38.186-7.68 14.61 0.051 29.005 3.511 42.043 10.101 13.034 6.594 24.353 16.135 33.053 27.875 5.244 6.199 11.78 11.18 19.149 14.599 7.369 3.416 15.393 5.186 23.515 5.186s16.146-1.77 23.515-5.186c7.369-3.419 13.904-8.4 19.152-14.599 12.946-16.757 31.045-28.789 51.511-34.235 20.462-5.445 42.149-4.005 61.711 4.103 19.562 8.104 35.913 22.426 46.526 40.748 10.613 18.326 14.899 39.632 12.2 60.635-1.002 8.141-0.135 16.402 2.534 24.155 2.666 7.757 7.069 14.8 12.869 20.601 5.797 5.797 12.844 10.2 20.597 12.869 7.757 2.67 16.018 3.536 24.159 2.534 21.040-2.929 42.459 1.251 60.855 11.878 18.399 10.628 32.717 27.096 40.689 46.789 8.521 19.522 10.163 41.359 4.663 61.934-5.504 20.579-17.829 38.682-34.955 51.346zM848.786 308.476c-4.348-11.041-12.295-20.293-22.557-26.255-10.258-5.961-22.232-8.287-33.979-6.597-14.621 1.883-29.48 0.384-43.436-4.374s-26.631-12.654-37.058-23.080c-10.423-10.427-18.319-23.102-23.080-37.058-4.758-13.952-6.254-28.811-4.37-43.436 1.543-11.739-0.83-23.662-6.755-33.913-5.925-10.255-15.067-18.264-26.010-22.788-10.946-4.524-23.077-5.307-34.509-2.227-11.436 3.076-21.533 9.845-28.727 19.248-9.351 11.165-21.036 20.144-34.231 26.302s-27.582 9.351-42.145 9.351c-14.563 0-28.946-3.193-42.141-9.351s-24.88-15.137-34.231-26.302c-7.194-9.403-17.295-16.172-28.727-19.248-11.436-3.079-23.567-2.297-34.509 2.227-10.944 4.524-20.088 12.533-26.012 22.788-5.925 10.251-8.298 22.173-6.753 33.913 1.888 13.637 0.835 27.52-3.090 40.719-3.925 13.195-10.63 25.399-19.664 35.785-9.034 10.39-20.188 18.721-32.712 24.441-12.524 5.716-26.127 8.689-39.894 8.711-4.19 0.318-8.397 0.318-12.587 0-11.75-1.73-23.74 0.578-34.009 6.546-10.269 5.965-18.21 15.239-22.525 26.306-5.091 10.96-6.193 23.355-3.116 35.039s10.141 21.928 19.969 28.961c11.687 9.008 21.151 20.579 27.662 33.818 6.512 13.243 9.898 27.802 9.898 42.555 0 14.757-3.387 29.316-9.898 42.555-6.512 13.243-15.975 24.814-27.662 33.821-9.405 7.194-16.172 17.291-19.25 28.727-3.078 11.432-2.294 23.563 2.229 34.509 4.523 10.942 12.533 20.086 22.785 26.010s22.175 8.298 33.915 6.753c14.614-1.838 29.455-0.312 43.389 4.463s26.593 12.671 37.008 23.086c10.415 10.416 18.312 23.074 23.087 37.008s6.301 28.775 4.463 43.39c-0.872 11.511 1.984 22.997 8.147 32.759s15.304 17.28 26.070 21.444c10.77 4.163 22.59 4.75 33.715 1.674 11.129-3.077 20.97-9.653 28.069-18.756 9.351-11.163 21.036-20.141 34.231-26.301s27.579-9.352 42.141-9.352c14.563 0 28.95 3.192 42.145 9.352s24.88 15.138 34.231 26.301c7.194 9.405 17.291 16.172 28.727 19.25 11.432 3.077 23.563 2.294 34.509-2.229 10.942-4.523 20.085-12.533 26.010-22.786s8.298-22.175 6.755-33.915c-1.84-14.614-0.315-29.456 4.462-43.39 4.773-13.934 12.672-26.592 23.088-37.007 10.412-10.416 23.073-18.312 37.007-23.087s28.774-6.301 43.388-4.463c11.739 1.546 23.662-0.828 33.916-6.753 10.251-5.925 18.26-15.069 22.784-26.010 4.524-10.946 5.307-23.077 2.231-34.509-3.079-11.436-9.845-21.533-19.251-28.727-11.685-9.008-21.149-20.579-27.663-33.821-6.51-13.239-9.896-27.798-9.896-42.555 0-14.753 3.387-29.312 9.896-42.555 6.513-13.239 15.978-24.81 27.663-33.818 9.633-6.992 16.563-17.086 19.632-28.584s2.088-23.702-2.776-34.564z" />
<glyph unicode="&#xe947;" glyph-name="Vector-22" horiz-adv-x="870" d="M524.708-38.124h-204.798c-10.184 0-19.952 4.045-27.153 11.249-7.201 7.199-11.247 16.968-11.247 27.151s4.046 19.953 11.247 27.151c7.201 7.204 16.969 11.249 27.153 11.249h204.798c10.189 0 19.953-4.045 27.156-11.249 7.199-7.199 11.244-16.968 11.244-27.151s-4.045-19.953-11.244-27.151c-7.204-7.204-16.968-11.249-27.156-11.249zM709.028 115.476h-573.438c-28.871-0.026-57.017 9.042-80.443 25.912-23.427 16.876-40.944 40.699-50.065 68.091-11.333 31.826-10.728 66.683 1.702 98.099s35.84 57.247 65.882 72.704c1.926 0.988 3.573 2.442 4.79 4.229 1.217 1.792 1.964 3.855 2.173 6.011l25.6 279.808c7.258 79.173 43.841 152.777 102.57 206.368s135.365 83.301 214.87 83.301c79.505 0 156.143-29.71 214.869-83.301 58.732-53.591 95.314-127.195 102.569-206.368l25.6-279.808c0.21-2.156 0.957-4.219 2.176-6.011 1.213-1.787 2.862-3.241 4.787-4.229 27.776-14.464 49.915-37.801 62.894-66.299 12.984-28.498 16.056-60.518 8.74-90.967s-24.607-57.574-49.121-77.061c-24.515-19.487-54.84-30.218-86.154-30.479zM422.31 883.476c-60.48 0.296-118.854-22.192-163.503-62.989s-72.298-96.91-77.445-157.171l-25.6-279.859c-1.321-15.217-6.538-29.834-15.146-42.455-8.609-12.616-20.32-22.804-34.006-29.583-13.023-6.584-23.256-17.613-28.845-31.094-5.588-13.476-6.163-28.513-1.619-42.378 3.618-13.025 11.372-24.525 22.093-32.763s23.83-12.769 37.35-12.908h573.438c12.754-0.015 25.19 3.988 35.543 11.438 10.348 7.455 18.084 17.981 22.108 30.085 5.55 14.264 5.663 30.075 0.307 44.421-5.35 14.341-15.795 26.209-29.338 33.352-13.686 6.779-25.395 16.968-34.002 29.583-8.612 12.621-13.824 27.238-15.15 42.455l-25.6 279.859c-5.176 60.172-32.788 116.196-77.358 156.953s-102.835 63.263-163.229 63.054z" />
<glyph unicode="&#xe948;" glyph-name="Vector-21" d="M972.707 391.773c-8.684 6.729-15.711 15.35-20.543 25.21-4.837 9.865-7.348 20.699-7.348 31.681s2.511 21.816 7.348 31.679c4.832 9.861 11.859 18.484 20.543 25.21 22.343 17.261 38.38 41.396 45.641 68.68s5.339 56.2-5.471 82.283c-10.806 26.083-29.901 47.883-54.331 62.034-24.435 14.151-52.843 19.867-80.847 16.265-10.85-1.335-21.865-0.179-32.207 3.38-10.338 3.559-19.734 9.427-27.463 17.16-7.734 7.733-13.605 17.125-17.164 27.465-3.555 10.34-4.71 21.355-3.379 32.209 3.604 28.003-2.111 56.413-16.262 80.845s-35.952 43.525-62.035 54.333c-26.083 10.809-54.999 12.731-82.281 5.47-27.287-7.261-51.424-23.301-68.681-45.644-6.997-8.268-15.711-14.91-25.537-19.467s-20.524-6.917-31.354-6.917c-10.83 0-21.528 2.36-31.354 6.917s-18.539 11.199-25.535 19.467c-17.261 22.343-41.396 38.383-68.68 45.644s-56.2 5.338-82.283-5.47c-26.083-10.809-47.883-29.902-62.034-54.333s-19.867-52.842-16.265-80.845c1.335-10.853 0.179-21.868-3.38-32.209s-9.427-19.732-17.16-27.465c-7.733-7.733-17.125-13.601-27.466-17.16s-21.355-4.715-32.208-3.38c-28.003 3.603-56.413-2.113-80.845-16.265s-43.525-35.951-54.333-62.034c-10.809-26.083-12.731-54.999-5.47-82.283s23.301-51.419 45.644-68.68c8.682-6.726 15.709-15.349 20.543-25.21 4.834-9.863 7.347-20.697 7.347-31.679s-2.513-21.816-7.347-31.681c-4.834-9.86-11.861-18.481-20.543-25.21-22.343-17.257-38.383-41.394-45.644-68.681-7.261-27.282-5.338-56.198 5.47-82.281s29.902-47.884 54.333-62.035c24.432-14.151 52.842-19.866 80.845-16.262 10.853 1.331 21.868 0.176 32.208-3.379 10.34-3.56 19.733-9.431 27.466-17.164 7.733-7.729 13.601-17.125 17.16-27.463 3.559-10.342 4.715-21.358 3.38-32.207-4.165-28.087 1.298-56.754 15.501-81.34s36.31-43.637 62.72-54.057c16.161-6.641 33.445-10.118 50.916-10.24 19.478 0.068 38.672 4.676 56.054 13.468 17.382 8.787 32.473 21.514 44.071 37.161 6.996 8.27 15.71 14.911 25.535 19.466 9.826 4.559 20.524 6.919 31.354 6.919s21.528-2.36 31.354-6.919c9.826-4.554 18.539-11.196 25.537-19.466 17.257-22.343 41.394-38.38 68.681-45.641 27.282-7.261 56.198-5.339 82.281 5.471 26.083 10.806 47.884 29.901 62.035 54.331 14.151 24.435 19.866 52.843 16.262 80.847-1.331 10.85-0.176 21.865 3.379 32.207 3.56 10.338 9.431 19.734 17.164 27.463 7.729 7.734 17.125 13.605 27.463 17.164 10.342 3.555 21.358 4.71 32.207 3.379 28.058-3.911 56.617 1.663 81.145 15.833 24.527 14.175 43.622 36.128 54.252 62.386 11.362 26.034 13.551 55.145 6.212 82.583-7.334 27.438-23.767 51.575-46.602 68.457zM960.473 262.636c-5.793-14.721-16.389-27.058-30.071-35.006-13.678-7.953-29.642-11.049-45.305-8.797-19.495 2.506-39.312 0.512-57.915-5.832-18.608-6.349-35.508-16.876-49.41-30.774-13.897-13.902-24.425-30.803-30.774-49.41-6.344-18.603-8.338-38.42-5.832-57.915 2.063-15.653-1.102-31.549-9.001-45.222-7.899-13.668-20.090-24.347-34.684-30.379-14.59-6.032-30.764-7.075-46.012-2.974-15.243 4.106-28.706 13.127-38.302 25.668-12.468 14.882-28.048 26.853-45.641 35.070-17.593 8.212-36.771 12.468-56.188 12.468s-38.597-4.257-56.19-12.468c-17.594-8.216-33.173-20.187-45.641-35.070-9.592-12.542-23.057-21.563-38.303-25.668-15.246-4.101-31.42-3.057-46.011 2.974s-26.783 16.711-34.682 30.379c-7.899 13.673-11.065 29.569-9.003 45.222 2.518 18.183 1.113 36.693-4.12 54.287-5.233 17.598-14.174 33.865-26.219 47.718-12.046 13.848-26.918 24.961-43.616 32.588-16.698 7.621-34.835 11.581-53.191 11.61-5.586 0.424-11.196 0.424-16.782 0-15.667-2.302-31.653 0.775-45.345 8.728-13.691 7.958-24.28 20.324-30.033 35.079-6.788 14.609-8.257 31.134-4.154 46.719 4.103 15.579 13.521 29.238 26.625 38.615 15.582 12.010 28.201 27.433 36.883 45.090 8.683 17.652 13.198 37.064 13.198 56.739s-4.515 39.086-13.198 56.74c-8.682 17.654-21.301 33.081-36.883 45.091-12.54 9.592-21.563 23.057-25.666 38.303s-3.059 31.42 2.973 46.011c6.031 14.592 16.711 26.783 30.381 34.682s29.566 11.065 45.219 9.003c19.486-2.451 39.274-0.416 57.853 5.95s35.457 16.895 49.344 30.782c13.887 13.887 24.416 30.765 30.782 49.344s8.402 38.367 5.95 57.853c-1.162 15.348 2.646 30.663 10.863 43.678s20.405 23.040 34.761 28.592c14.356 5.551 30.118 6.333 44.954 2.231s27.957-12.871 37.422-25.009c12.468-14.885 28.047-26.855 45.641-35.068s36.773-12.47 56.19-12.47c19.417 0 38.595 4.256 56.188 12.47s33.173 20.184 45.641 35.068c9.596 12.54 23.060 21.563 38.302 25.666 15.248 4.103 31.422 3.059 46.012-2.973 14.594-6.031 26.785-16.711 34.684-30.381s11.064-29.566 9.001-45.219c-2.448-19.486-0.414-39.274 5.954-57.853 6.363-18.579 16.891-35.457 30.779-49.344s30.769-24.416 49.347-30.782c18.578-6.366 38.366-8.402 57.851-5.95 15.653 2.061 31.549-1.104 45.222-9.003 13.668-7.899 24.347-20.091 30.379-34.682s7.075-30.765 2.974-46.011c-4.106-15.246-13.127-28.711-25.668-38.303-15.584-12.011-28.199-27.437-36.884-45.091s-13.195-37.064-13.195-56.74c0-19.675 4.51-39.088 13.195-56.739 8.684-17.657 21.299-33.080 36.884-45.090 12.839-9.323 22.084-22.782 26.175-38.112s2.784-31.603-3.706-46.085z" />
<glyph unicode="&#xe94a;" glyph-name="logout-svgrepo-com" d="M554.662 874.667c-117.82 0-213.333-95.513-213.333-213.333 0-23.564 19.102-42.667 42.667-42.667s42.667 19.103 42.667 42.667c0 70.692 57.309 128 128 128h170.667c70.694 0 128-57.308 128-128v-426.667c0-70.694-57.306-128-128-128h-170.667c-70.69 0-128 57.306-128 128 0 23.565-19.103 42.667-42.667 42.667s-42.667-19.102-42.667-42.667c0-117.82 95.513-213.333 213.333-213.333h170.667c117.82 0 213.333 95.514 213.333 213.333v426.667c0 117.821-95.514 213.333-213.333 213.333h-170.667zM597.329 490.667c23.565 0 42.667-19.102 42.667-42.667s-19.102-42.667-42.667-42.667v85.333zM243.961 490.667c3.798 4.685 7.437 9.229 10.88 13.568 10.474 13.214 19.342 24.815 25.604 33.131 3.134 4.162 5.622 7.511 7.34 9.838l1.987 2.701 0.721 0.987c0.002 0.003 0.021 0.030-34.496 25.108l34.496-25.108c13.85 19.064 9.646 45.776-9.418 59.627-19.063 13.85-45.743 9.625-59.595-9.437l-0.12-0.165-0.437-0.597-1.782-2.422c-1.576-2.135-3.907-5.271-6.868-9.204-5.928-7.873-14.354-18.898-24.298-31.44-20.106-25.358-45.571-55.839-68.816-79.084l-30.17-30.17 30.17-30.17c23.244-23.245 48.71-53.726 68.816-79.083 9.944-12.544 18.371-23.569 24.298-31.441 2.961-3.934 5.292-7.070 6.868-9.203l1.782-2.423 0.437-0.597 0.099-0.137c13.851-19.059 40.553-23.313 59.616-9.463s23.29 40.533 9.439 59.597l-34.518-25.079c34.518 25.079 34.52 25.075 34.518 25.079l-0.21 0.286-0.532 0.73-1.987 2.701c-1.718 2.33-4.207 5.675-7.34 9.839-6.262 8.316-15.13 19.917-25.604 33.131-3.442 4.339-7.081 8.883-10.88 13.568h353.368v85.333h-353.368z" />
</font>
</defs>
</svg>
